<svg xmlns="http://www.w3.org/2000/svg" xmlns:xlink="http://www.w3.org/1999/xlink" xmlns:lucid="lucid" width="1488.13" height="1093"><g transform="translate(-211.87037037037038 -140)" lucid:page-tab-id="0_0"><path d="M0 0h1760v1360H0z" fill="#fff"/><path d="M1140 286c0-3.3 2.7-6 6-6h508c3.3 0 6 2.7 6 6v268c0 3.3-2.7 6-6 6h-508c-3.3 0-6-2.7-6-6z" fill="#fff" fill-opacity="0"/><path d="M1156.46 280h8.96m5.98 0h8.96m5.98 0h8.97m5.98 0h8.97m5.97 0h8.97m5.96 0h8.97m5.98 0h8.97m5.98 0h8.96m6 0h8.95m5.98 0h8.96m5.97 0h8.97m5.97 0h8.98m5.97 0h8.97m5.97 0h8.96m5.98 0h8.96m5.98 0h8.96m5.98 0h8.96m5.98 0h8.96m5.98 0h8.96m5.98 0h8.97m5.98 0h8.97m5.97 0h8.97m5.96 0h8.97m5.98 0h8.97m5.98 0h8.96m6 0h8.95m5.98 0h8.96m5.97 0h8.97m5.97 0h8.98m5.97 0h8.97m5.97 0h8.96m5.98 0h8.96m5.98 0h8.96m5.98 0h4.48l3.03.82 2.15 2.15.82 3.03v4.47m0 5.95v8.94m0 5.95v8.94m0 5.96v8.93m0 5.96V350m0 5.96v8.93m0 5.97v8.93m0 5.96v8.93m0 5.94v8.94m0 5.95v8.94m0 5.95v8.94m0 5.95v8.94m0 5.96v8.93m0 5.96V484m0 5.96v8.93m0 5.97v8.93m0 5.96v8.93m0 5.94v8.94m0 5.95V554l-.82 3.03-2.15 2.15-3.03.82h-4.48m-5.98 0h-8.96m-5.98 0h-8.96m-5.98 0h-8.97m-5.98 0h-8.97m-5.97 0h-8.97m-5.96 0h-8.97m-5.98 0h-8.97m-5.98 0H1530m-6 0h-8.95m-5.98 0h-8.96m-5.97 0h-8.97m-5.97 0h-8.98m-5.97 0h-8.97m-5.97 0h-8.96m-5.98 0h-8.96m-5.98 0h-8.96m-5.98 0h-8.96m-5.98 0h-8.96m-5.98 0h-8.96m-5.98 0h-8.97m-5.98 0h-8.97m-5.97 0h-8.97m-5.96 0h-8.97m-5.98 0h-8.97m-5.98 0H1276m-6 0h-8.95m-5.98 0h-8.96m-5.97 0h-8.97m-5.97 0h-8.98m-5.97 0h-8.97m-5.97 0h-8.96m-5.98 0h-8.96m-5.98 0h-8.96m-5.98 0H1146l-3.03-.82-2.15-2.15-.82-3.03v-4.47m0-5.95v-8.94m0-5.95v-8.94m0-5.96v-8.93m0-5.96V490m0-5.96v-8.93m0-5.97v-8.93m0-5.96v-8.93m0-5.94v-8.94m0-5.95v-8.94m0-5.95v-8.94m0-5.95v-8.94m0-5.96v-8.93m0-5.96V356m0-5.96v-8.93m0-5.97v-8.93m0-5.96v-8.93m0-5.94v-8.94m0-5.95V286l.82-3.03 2.15-2.15 3.03-.82h4.48" stroke="#147eba" stroke-width="3" fill="none"/><path d="M1140 280h56v56h-56v-56z" stroke="#fff" stroke-opacity="0" fill="#147eba"/><path d="M1183.84 309.36l-5.96-7.36 5.96-7.4h-26.17v-2.08c.98-.32 1.62-1.16 1.62-2.2-.1-1.15-1.03-2.02-2.17-2.14-1.3-.08-2.44.87-2.53 2.15 0 1.03.63 1.87 1.58 2.2v33.88h-4.02v1.6h9.44v-1.6h-3.93v-17.04zm-26.96-19.75c.4-.03.76.33.76.73 0 .44-.32.75-.73.75-.4.04-.75-.3-.75-.7v-.05c0-.4.32-.72.73-.72zm23.6 6.62l-4.66 5.78 4.66 5.73h-22.8v-11.5z" stroke="#fff" stroke-opacity="0" fill="#fff"/><use xlink:href="#a" transform="matrix(1,0,0,1,1211,300) translate(0 17.955555555555552)"/><path d="M1140 606c0-3.3 2.7-6 6-6h508c3.3 0 6 2.7 6 6v268c0 3.3-2.7 6-6 6h-508c-3.3 0-6-2.7-6-6z" fill="#fff" fill-opacity="0"/><path d="M1156.46 600h8.96m5.98 0h8.96m5.98 0h8.97m5.98 0h8.97m5.97 0h8.97m5.96 0h8.97m5.98 0h8.97m5.98 0h8.96m6 0h8.95m5.98 0h8.96m5.97 0h8.97m5.97 0h8.98m5.97 0h8.97m5.97 0h8.96m5.98 0h8.96m5.98 0h8.96m5.98 0h8.96m5.98 0h8.96m5.98 0h8.96m5.98 0h8.97m5.98 0h8.97m5.97 0h8.97m5.96 0h8.97m5.98 0h8.97m5.98 0h8.96m6 0h8.95m5.98 0h8.96m5.97 0h8.97m5.97 0h8.98m5.97 0h8.97m5.97 0h8.96m5.98 0h8.96m5.98 0h8.96m5.98 0h4.48l3.03.82 2.15 2.15.82 3.03v4.47m0 5.95v8.94m0 5.95v8.94m0 5.96v8.93m0 5.96V670m0 5.96v8.93m0 5.97v8.93m0 5.96v8.93m0 5.94v8.94m0 5.95v8.94m0 5.95v8.94m0 5.95v8.94m0 5.96v8.93m0 5.96V804m0 5.96v8.93m0 5.97v8.93m0 5.96v8.93m0 5.94v8.94m0 5.95V874l-.82 3.03-2.15 2.15-3.03.82h-4.48m-5.98 0h-8.96m-5.98 0h-8.96m-5.98 0h-8.97m-5.98 0h-8.97m-5.97 0h-8.97m-5.96 0h-8.97m-5.98 0h-8.97m-5.98 0H1530m-6 0h-8.95m-5.98 0h-8.96m-5.97 0h-8.97m-5.97 0h-8.98m-5.97 0h-8.97m-5.97 0h-8.96m-5.98 0h-8.96m-5.98 0h-8.96m-5.98 0h-8.96m-5.98 0h-8.96m-5.98 0h-8.96m-5.98 0h-8.97m-5.98 0h-8.97m-5.97 0h-8.97m-5.96 0h-8.97m-5.98 0h-8.97m-5.98 0H1276m-6 0h-8.95m-5.98 0h-8.96m-5.97 0h-8.97m-5.97 0h-8.98m-5.97 0h-8.97m-5.97 0h-8.96m-5.98 0h-8.96m-5.98 0h-8.96m-5.98 0H1146l-3.03-.82-2.15-2.15-.82-3.03v-4.47m0-5.95v-8.94m0-5.95v-8.94m0-5.96v-8.93m0-5.96V810m0-5.96v-8.93m0-5.97v-8.93m0-5.96v-8.93m0-5.94v-8.94m0-5.95v-8.94m0-5.95v-8.94m0-5.95v-8.94m0-5.96v-8.93m0-5.96V676m0-5.96v-8.93m0-5.97v-8.93m0-5.96v-8.93m0-5.94v-8.94m0-5.95V606l.82-3.03 2.15-2.15 3.03-.82h4.48" stroke="#147eba" stroke-width="3" fill="none"/><path d="M1140 600h56v56h-56v-56z" stroke="#fff" stroke-opacity="0" fill="#147eba"/><path d="M1183.84 629.36l-5.96-7.36 5.96-7.4h-26.17v-2.08c.98-.32 1.62-1.16 1.62-2.2-.1-1.15-1.03-2.02-2.17-2.14-1.3-.08-2.44.87-2.53 2.15 0 1.03.63 1.87 1.58 2.2v33.88h-4.02v1.6h9.44v-1.6h-3.93v-17.04zm-26.96-19.75c.4-.03.76.33.76.73 0 .44-.32.75-.73.75-.4.04-.75-.3-.75-.7v-.05c0-.4.32-.72.73-.72zm23.6 6.62l-4.66 5.78 4.66 5.73h-22.8v-11.5z" stroke="#fff" stroke-opacity="0" fill="#fff"/><use xlink:href="#b" transform="matrix(1,0,0,1,1211,620) translate(0 17.955555555555552)"/><path d="M880 500h240v60H880z" fill="none"/><use xlink:href="#c" transform="matrix(1,0,0,1,880,500) translate(8.81172839506172 20.22222222222222)"/><use xlink:href="#d" transform="matrix(1,0,0,1,880,500) translate(110.39197530864197 20.22222222222222)"/><use xlink:href="#e" transform="matrix(1,0,0,1,880,500) translate(210.8179012345679 20.22222222222222)"/><use xlink:href="#f" transform="matrix(1,0,0,1,880,500) translate(61.02777777777778 49.55555555555556)"/><path d="M720 166c0-3.3 2.7-6 6-6h948c3.3 0 6 2.7 6 6v728c0 3.3-2.7 6-6 6H726c-3.3 0-6-2.7-6-6z" stroke="#232f3e" stroke-width="3" fill="#fff" fill-opacity="0"/><path d="M720 160h56v56h-56v-56z" stroke="#fff" stroke-opacity="0" fill="#232f3e"/><path d="M760.88 201.22h-25c-4.13.05-7.57-3.1-7.9-7.2v-.64c-.15-3.4 1.97-6.38 5.25-7.36v-.66c.12-4.22 2.44-7.75 6.24-9.57 4.12-1.86 8.73-.96 11.8 2.3 1.1 1.1 1.85 2.2 2.45 3.6 1.2-1 2.72-1.32 4.24-.9 2.24.8 3.68 2.74 3.76 5.1 3.68.65 6.32 3.8 6.28 7.56 0 7.07-7.04 7.73-7.12 7.76zm-26.7-13.88c-2.83.6-4.75 3.14-4.6 6.04v.53c.3 3.33 3.1 5.84 6.4 5.76h24.98c3.04-.3 5.4-2.64 5.68-5.7.28-3.43-2.24-6.5-5.68-6.78-.44-.05-.72-.44-.64-.87.08-1.83-1-3.44-2.72-4.13-1.32-.37-2.64.13-3.44 1.24-.2.25-.44.38-.76.33-.28-.05-.48-.24-.6-.5-.6-1.6-1.4-2.85-2.6-4.04-2.68-2.8-6.6-3.6-10.13-2-3.24 1.6-5.2 4.63-5.32 8.24-.04.4-.04.74 0 1.14.04.4-.2.76-.6.84z" stroke="#fff" stroke-opacity="0" fill="#fff"/><use xlink:href="#g" transform="matrix(1,0,0,1,791,180) translate(0 14.4)"/><use xlink:href="#h" transform="matrix(1,0,0,1,791,180) translate(45.3 14.4)"/><path d="M780 620h120v120H780V620z" stroke="#fff" stroke-opacity="0" fill="#693cc5"/><path d="M853.82 717.07l-2.85-1.5c1.6-3.02 2.7-5.73 3.64-9.04l3.1.9c-1.03 3.54-2.17 6.4-3.88 9.64zm2.98-29.3c-.57-9.4-3.23-17.23-8.43-25.06l2.66-1.72c5.55 8.28 8.37 16.64 8.97 26.58zm-21.1-38.6c-2.45-1.82-4.67-3.18-7.4-4.53l1.46-2.86c2.92 1.43 5.26 2.86 7.86 4.8zM848.8 691.84c-5.3-5.27-10.82-8.73-17.87-11.2l1-3.04c7.5 2.63 13.38 6.3 19.03 11.92zM862 710.94c-.6-1.6-1.28-3.07-2.02-4.56l2.87-1.42c.83 1.65 1.46 3.08 2.13 4.8z" stroke="#fff" stroke-opacity="0" fill="#fff"/><path d="M852.9 717.84l-1-3.02c4.02-1.37 7.24-3.1 10.6-5.72l1.96 2.53c-3.66 2.85-7.15 4.73-11.55 6.2zM802.04 679.2l-.73-3.1c3.75-.92 7-1.35 10.85-1.43l.07 3.2c-3.6.08-6.66.47-10.18 1.33zM828.3 669.02l-2.7-1.75c2.47-4 5.06-7.1 8.6-10.23l2.1 2.42c-3.3 2.92-5.7 5.8-8 9.56zM852.08 650.05l-1.1-3c2.55-.96 4.76-1.6 7.42-2.12l.6 3.2c-2.5.47-4.55 1.04-6.92 1.92zM820.4 714.4c-2.75-6.38-4-12.25-4.1-19.2.04-2.67.34-4.95.98-7.54.1-.57.24-1.14.35-1.74l3.2.63c-.1.6-.24 1.16-.35 1.76-.6 2.38-.87 4.46-.92 6.9.07 6.53 1.23 12.05 3.8 18.06z" stroke="#fff" stroke-opacity="0" fill="#fff"/><path d="M840 720c-22.08 0-40-17.94-40-39.97 0-.88 0-1.6.08-2.5 1.04-17.05 12.08-31 28.48-35.87 10.8-3.2 21.2-2.1 30.96 3.44 19.28 10.82 26.16 35.17 15.36 54.47-2.72 4.9-5.92 8.65-10.4 12.1-7.36 5.6-15.2 8.33-24.48 8.33zm0-76.82c-3.76 0-6.96.48-10.48 1.6-15.12 4.57-25.28 17.3-26.24 33 0 .8-.08 1.53-.08 2.25 0 20.26 16.48 36.77 36.8 36.77 4.24 0 7.84-.56 11.84-2 4.08-1.37 7.28-3.05 10.64-5.7 9.36-7.2 14.32-17.3 14.32-29.07 0-20.35-16.48-36.85-36.8-36.85z" stroke="#fff" stroke-opacity="0" fill="#fff"/><path d="M843.9 661.5c-3.92 0-7.1-3.2-7.1-7.1 0-3.9 3.18-7.1 7.1-7.1 3.9 0 7.08 3.2 7.08 7.1 0 3.93-3.17 7.1-7.08 7.1zm0-10.97c-2.15 0-3.9 1.74-3.9 3.88 0 2.17 1.75 3.9 3.9 3.9 2.13 0 3.87-1.73 3.87-3.9 0-2.13-1.74-3.87-3.88-3.87zM822.06 683.8c-3.9 0-7.08-3.17-7.08-7.08 0-3.9 3.17-7.1 7.08-7.1 3.92 0 7.1 3.2 7.1 7.1-.02 3.9-3.18 7.07-7.1 7.1zm0-10.96c-2.14 0-3.88 1.74-3.88 3.88 0 2.14 1.74 3.88 3.88 3.88 2.14 0 3.9-1.74 3.9-3.88v-.03c0-2.16-1.76-3.9-3.9-3.9zM857.25 704.32c-3.92 0-7.1-3.16-7.1-7.07-.02-3.92 3.16-7.1 7.07-7.1 3.9-.02 7.1 3.16 7.1 7.07v.03c0 3.9-3.16 7.07-7.07 7.07zm0-10.96h-.02c-2.14 0-3.88 1.75-3.88 3.9 0 2.14 1.74 3.87 3.88 3.87 2.14 0 3.9-1.73 3.9-3.88 0-2.14-1.74-3.9-3.88-3.9z" stroke="#fff" stroke-opacity="0" fill="#fff"/><use xlink:href="#i" transform="matrix(1,0,0,1,750,749) translate(49.29012345679012 17.77777777777778)"/><use xlink:href="#j" transform="matrix(1,0,0,1,750,749) translate(35.18518518518518 44.44444444444444)"/><path d="M780 280h120v120H780V280z" stroke="#fff" stroke-opacity="0" fill="#693cc5"/><path d="M823.67 348.7c2.12.76 4.02 1.1 6.27 1.18 1.42.12 2.7-.23 3.86-1.07.92-.86 1.38-1.93 1.32-3.2.1-1.3-.3-2.47-1.25-3.4-1.26-.84-2.58-1.17-4.1-1.05-1.8.02-3.33.1-5.1.32v-2.26l.62-9.87h12.03V332H828l-.43 6.7c1.1-.22 2.06-.3 3.2-.3 2.12-.15 3.96.48 5.58 1.86 1.44 1.4 2.12 3.17 2 5.18.07 2.08-.73 3.9-2.33 5.24-1.82 1.44-3.85 2.1-6.18 2-2.3 0-4.2-.4-6.3-1.33zM849.8 339.1H850.4c1.98-.14 3.72.42 5.24 1.7 1.38 1.3 2.03 2.93 1.92 4.8.06 2.06-.76 3.83-2.36 5.14-1.87 1.4-3.9 2.04-6.26 1.92-2.2 0-4.1-.42-6.12-1.3v-2.65c2.06.76 3.92 1.1 6.12 1.18 1.45.12 2.7-.26 3.87-1.1.97-.84 1.44-1.94 1.35-3.2 0-2.67-1.66-4-5.03-4-1.12 0-2.08.04-3.2.16v-2.18l6.93-7.55h-9.68v-2.7h13.43v2.62z" stroke="#fff" stroke-opacity="0" fill="#fff"/><path d="M840 370.4c-.3 0-.57-.06-.82-.24-5.44-3.2-10.56-5.15-16.76-6.4-3.4-.58-14.4-3.2-14.4-11.18 0-3.62 1.42-6.04 3.2-9.06 2.76-4.1 4.17-8.23 4.36-13.15 0-4.74-1.22-8.7-3.84-12.67-.38-.6-.32-1.3.13-1.9l2.56-3.2c.5-.6 1.34-.76 2.04-.35 3.46 2 6.78 2.9 10.8 2.96 4.42.07 8.2-1.1 11.78-3.72.57-.4 1.34-.4 1.85 0 3.65 2.6 7.42 3.8 11.83 3.73 3.97-.05 7.36-1 10.8-2.95.72-.4 1.55-.24 2.06.36l2.55 3.2c.44.54.5 1.3.12 1.9-2.62 3.9-3.77 7.93-3.83 12.67 0 5.7 2.3 9.6 4.35 13.15 1.78 3.02 3.18 5.44 3.18 9.06 0 8-11 10.6-14.4 11.2-6.2 1.23-11.3 3.13-16.74 6.38-.26.18-.5.24-.83.24zm-24.93-53.6c2.5 4.27 3.64 8.48 3.64 13.4 0 6.57-2.6 11.13-4.78 14.74-1.6 2.84-2.7 4.73-2.7 7.46 0 5.68 9.8 7.76 11.7 8.1 6.34 1.25 11.46 3.2 17.02 6.4 5.57-3.2 10.75-5.15 17.02-6.4 1.98-.34 11.76-2.42 11.76-8.1 0-2.73-1.08-4.62-2.75-7.46-2.1-3.6-4.8-8.17-4.8-14.75.07-4.92 1.22-9.13 3.78-13.4l-1.02-1.23c-3.6 1.83-7.1 2.72-11.2 2.72-4.73.05-8.76-1.07-12.8-3.68-3.95 2.6-8.04 3.73-12.78 3.67-4.1 0-7.54-.9-11.2-2.73z" stroke="#fff" stroke-opacity="0" fill="#fff"/><path d="M840.03 380c-.4 0-.72-.08-1.04-.32-5.68-4.08-11.2-6.56-18-8-13.18-2.4-21.02-9.67-21.02-19.26.16-4.88 1.44-9.04 4.24-13.1 1.76-2.97 3.2-5.53 3.2-9.05-.16-4.88-2.16-8.95-5.84-12.23-.72-.48-.88-1.52-.32-2.24.08 0 .08-.08.08-.08 0-.16 9.44-11.43 11.6-14.3.23-.5.7-.73 1.2-.73.55 0 .95.15 1.35.55 3.03 3.6 6.95 5.6 11.74 5.84 4.48 0 8-2 11.35-6.4.63-.73 1.75-.9 2.47-.25l.24.24c3.37 4.47 6.9 6.4 11.36 6.4 4.8-.25 8.7-2.25 11.75-5.85.4-.4.8-.56 1.37-.56.48 0 .96.23 1.2.7 2.16 2.9 11.5 14.16 11.6 14.32.23.32.4.72.3 1.2 0 .48-.23.8-.55 1.12-3.68 3.28-5.67 7.35-5.83 12.23 0 3.52 1.5 6.08 3.18 9.04 2.8 4.08 4.08 8.24 4.24 13.12 0 9.6-7.83 16.87-21.02 19.27-6.8 1.42-12.3 3.82-18 7.98-.23.16-.55.32-.87.32zm-35.1-63.4c3.85 3.84 5.77 8.3 5.85 13.67 0 4.4-1.84 7.6-3.68 10.7-1.92 3.45-3.76 6.57-3.76 11.53 0 11.67 14 15.1 18.23 15.9 6.95 1.45 12.63 3.84 18.46 7.84 5.76-4 11.43-6.4 18.4-7.83 4.22-.8 18.2-4.23 18.2-15.9 0-4.96-1.83-8-3.74-11.52-1.85-3.2-3.7-6.4-3.7-10.7.1-5.37 2-9.84 5.84-13.68-2.15-2.56-6.95-8.4-9.5-11.67-3.6 3.5-7.84 5.35-12.8 5.5-5.2 0-9.6-2.15-12.8-6.14-3.27 3.98-7.66 6.14-12.86 6.14-4.95-.16-9.2-2-12.8-5.5-2.3 3.26-7.18 9.1-9.34 11.66z" stroke="#fff" stroke-opacity="0" fill="#fff"/><use xlink:href="#k" transform="matrix(1,0,0,1,750,409) translate(1.172839506172835 17.77777777777778)"/><use xlink:href="#l" transform="matrix(1,0,0,1,750,409) translate(88.76543209876543 17.77777777777778)"/><use xlink:href="#m" transform="matrix(1,0,0,1,750,409) translate(154.1358024691358 17.77777777777778)"/><path d="M1443.07 480c-18.96 0-49.17-4.3-49.55-15.9L1380 363.94c-.25-1.67.76-3.23 2.4-3.6 1.64-.23 3.3.85 3.67 2.52 1.4 5.75 23.9 13.76 57.13 13.76 33.24 0 55.74-8 57.13-13.76.38-1.67 2.03-2.75 3.67-2.5 1.64.35 2.65 1.9 2.4 3.58l-13.78 100.14c0 3.94-3.66 7.3-10.5 10.04-3.15 1.2-5.93 2.03-9.22 2.75-10.36 2.26-19.2 3.1-29.83 3.1zm-55.87-107.9l12.14 91.5v.37c0 3.6 17.06 10.17 43.6 10.17 10.12.12 18.6-.84 28.45-2.87 3.02-.72 5.55-1.56 8.46-2.76 5.43-2.14 6.7-4.05 6.7-4.65v-.36l12.26-91.4c-11.5 6.8-34.64 10.5-55.87 10.5-21.24 0-44.24-3.7-55.75-10.5z" stroke="#fff" stroke-opacity="0" fill="#3f8624"/><path d="M1443.1 382.57c-28.27 0-59.94-6.4-62.96-18.22v-1.62-.38c0-13.16 33.3-22.35 63.2-22.35 29.92 0 62.97 9.2 62.97 22.35v.38l-.1 1.23v.4c-3.3 11.82-34.96 18.2-63.1 18.2zM1385.94 363c1.9 5.73 24.23 13.6 57.16 13.6 32.93 0 55.26-7.87 57.16-13.6v-.82c-.38-5.8-23.85-16.22-57.16-16.22-33.3 0-56.9 10.43-57.3 16.22zM1506.4 423.76c-14.12 0-45.2-14.02-64.6-23.56l2.6-5.36c26.8 13.2 58.38 25.4 63.8 23.07-.42-.83-2.45-3.53-11.94-8.7l-.43-.28 2.97-5.18.43.3c9.56 5.23 14.13 9.3 14.92 13.12.3 1.65-.14 3.2-1.23 4.52-1.8 1.65-4.06 2.37-6.52 2.08z" stroke="#fff" stroke-opacity="0" fill="#3f8624"/><path d="M1443.1 404.04c-3.57 0-6.47-2.9-6.47-6.46 0-3.57 2.9-6.47 6.47-6.47 3.56 0 6.46 2.9 6.46 6.48 0 3.57-2.9 6.45-6.46 6.46zm0-6.97h-.03c-.28 0-.52.22-.5.5 0 .58 1.03.58 1.03 0v-.06c0-.27-.22-.5-.5-.5z" stroke="#fff" stroke-opacity="0" fill="#3f8624"/><use xlink:href="#n" transform="matrix(1,0,0,1,1350,488.9999999999999) translate(5.648148148148152 17.77777777777778)"/><use xlink:href="#o" transform="matrix(1,0,0,1,1350,488.9999999999999) translate(88.11728395061728 17.77777777777778)"/><use xlink:href="#p" transform="matrix(1,0,0,1,1350,488.9999999999999) translate(121.4506172839506 17.77777777777778)"/><path d="M282.44 681.78H261.7c-.95 0-1.7-.76-1.7-1.7v-2.54c0-9.48 6.23-17.44 15.5-19.67.4-.1.8-.04 1.2.17 2.73 1.46 5.68 1.46 8.4 0 .4-.2.8-.26 1.22-.17 2.43.6 4.43 1.47 6.5 2.85l-1.9 2.83c-1.55-1-3-1.68-4.8-2.15-3.45 1.58-7 1.58-10.43 0-7.4 2.06-12.3 8.5-12.3 16.14v.84h19.04z" stroke="#fff" stroke-opacity="0" fill="#232f3e"/><path d="M280.88 662.46c-6.17 0-11.17-5-11.17-11.14 0-6.16 5-11.15 11.18-11.15 6.16-.07 11.2 4.88 11.26 11 .04 4.27-2.1 7.9-5.86 9.9-1.72.97-3.4 1.4-5.4 1.4zm0-18.9c-4.3 0-7.83 3.45-7.85 7.76 0 2.92 1.48 5.4 4.06 6.8 2.43 1.3 5.12 1.3 7.57 0 2.6-1.4 4.1-3.95 4.06-6.9-.05-4.27-3.57-7.68-7.85-7.64zM338.32 681.78h-20.75v-3.4h19.04v-.83c0-7.67-4.9-14.1-12.25-16.17-3.45 1.6-7 1.6-10.46 0-1.82.5-3.3 1.2-4.84 2.28l-1.94-2.8c2.07-1.44 4.08-2.35 6.5-2.97.44-.1.86-.06 1.26.16 2.7 1.46 5.7 1.46 8.42 0 .4-.22.8-.27 1.2-.17 9.25 2.22 15.5 10.16 15.5 19.65v2.53c0 .94-.76 1.68-1.68 1.7z" stroke="#fff" stroke-opacity="0" fill="#232f3e"/><path d="M319.08 662.46c-6.2 0-11.23-5.05-11.23-11.25s5.06-11.2 11.28-11.2c6.2 0 11.23 5.05 11.23 11.25 0 4.23-2.14 7.82-5.85 9.84-1.75.94-3.44 1.36-5.42 1.36zm0-18.9c-4.3 0-7.8 3.45-7.83 7.76-.02 2.92 1.46 5.42 4.05 6.8 2.43 1.3 5.13 1.3 7.6 0 2.62-1.4 4.13-3.97 4.08-6.96-.1-4.26-3.62-7.68-7.9-7.6zM327.2 720h-54.46c-.92 0-1.67-.75-1.67-1.7v-3.6c-.06-13.1 8.6-24.1 21.32-27.18.46-.13.86-.06 1.27.13 4.04 2.18 8.5 2.18 12.6 0 .34-.2.75-.26 1.2-.13 12.78 3.06 21.45 14.06 21.4 27.18v3.6c0 .95-.76 1.7-1.68 1.7zm-52.72-3.38h50.97v-1.92c0-11.27-7.28-20.74-18.2-23.66-4.8 2.3-9.83 2.3-14.62 0-10.93 2.92-18.15 12.4-18.15 23.66z" stroke="#fff" stroke-opacity="0" fill="#232f3e"/><path d="M300.02 692.64c-2.7 0-5-.58-7.4-1.86-7.4-4.07-10.13-13.34-6.1-20.77 4.1-7.4 13.38-10.12 20.83-6.08 7.42 4.07 10.15 13.34 6.1 20.77-1.47 2.68-3.4 4.6-6.1 6.08-2.36 1.28-4.66 1.86-7.33 1.86zm0-26.76c-4.44-.06-8.28 2.17-10.42 6.1-3.07 5.64-.98 12.74 4.7 15.83 3.67 1.97 7.7 1.97 11.4 0 3.95-2.13 6.22-5.95 6.16-10.42-.1-6.42-5.4-11.6-11.84-11.5z" stroke="#fff" stroke-opacity="0" fill="#232f3e"/><path d="M338.78 681.78h-39.72c-.68 0-1.23-.54-1.23-1.23v-2.64c-.04-9.53 6.3-17.56 15.56-19.8.33-.1.63-.06.92.08 2.95 1.6 6.2 1.6 9.2 0 .25-.14.54-.2.88-.1 9.32 2.24 15.64 10.27 15.6 19.83v2.65c0 .7-.55 1.23-1.22 1.23zm-38.46-2.47h37.2v-1.4c0-8.2-5.32-15.1-13.3-17.25-3.5 1.7-7.16 1.7-10.66 0-7.97 2.14-13.24 9.05-13.24 17.26z" stroke="#fff" stroke-opacity="0" stroke-width=".73" fill="#fff" fill-opacity="0"/><path d="M300.94 681.78h-39.72c-.67 0-1.22-.54-1.22-1.23v-2.64c-.04-9.53 6.28-17.56 15.56-19.8.34-.1.63-.06.93.08 2.94 1.6 6.2 1.6 9.18 0 .25-.14.55-.2.88-.1 9.32 2.24 15.65 10.27 15.6 19.83v2.65c0 .7-.54 1.23-1.22 1.23zm-38.45-2.47h37.18v-1.4c0-8.2-5.3-15.1-13.28-17.25-3.5 1.7-7.17 1.7-10.67 0-7.97 2.14-13.24 9.05-13.24 17.26z" stroke="#fff" stroke-opacity="0" stroke-width=".73" fill="#fff" fill-opacity="0"/><use xlink:href="#q" transform="matrix(1,0,0,1,230,729) translate(2.870370370370381 17.77777777777778)"/><use xlink:href="#r" transform="matrix(1,0,0,1,230,729) translate(69.41358024691358 17.77777777777778)"/><path d="M1234.65 1062.63l-19.6-11.32v-22.6l19.6-11.33 19.6 11.32v22.6zm-16-13.4l16 9.23 16-9.23v-18.46l-16-9.23-16 9.23z" stroke="#fff" stroke-opacity="0" fill="#232f3e"/><path d="M1234.65 1080l-34.65-20v-40l34.65-20 34.65 20v40zm-31.05-22.08l31.05 17.92 31.05-17.92v-35.84l-31.05-17.92-31.05 17.92z" stroke="#fff" stroke-opacity="0" fill="#232f3e"/><path d="M1233.74 1038.44l32.84-18.95 1.8 3.12-32.84 18.95-1.8-3.13z" stroke="#fff" stroke-opacity="0" stroke-width=".87" fill="#232f3e"/><path d="M1200.98 1022.5l1.8-3.15 33 18.96-1.82 3.15-32.98-18.96z" stroke="#fff" stroke-opacity="0" stroke-width=".5" fill="#232f3e"/><path d="M1232.84 1040h3.62v37.92h-3.62V1040z" stroke="#fff" stroke-opacity="0" fill="#232f3e"/><use xlink:href="#s" transform="matrix(1,0,0,1,1170,1089) translate(38.48765432098766 17.77777777777778)"/><path d="M878.32 1180h-76.64c-.88 0-1.68-.76-1.68-1.7v-5.12c0-18.18 11.92-33.43 29.52-37.7.48-.1.88-.05 1.28.17 5.92 3.2 12.48 3.2 18.4 0 .4-.22.8-.26 1.2-.17 17.68 4.27 29.6 19.52 29.6 37.7v5.13c0 .94-.8 1.7-1.68 1.7zm-74.88-3.43h73.12v-3.4c.08-16.35-10.56-30.07-26.32-34.17-3.36 1.65-6.48 2.4-10.24 2.4s-6.88-.7-10.24-2.4c-15.76 4.1-26.4 17.82-26.32 34.18z" stroke="#fff" stroke-opacity="0" fill="#232f3e"/><path d="M840 1141.3c-3.67 0-6.8-.78-10.03-2.56-9.95-5.58-13.5-18.2-7.93-28.17 5.58-9.95 18.17-13.5 28.1-7.93 6.72 3.76 10.56 10.33 10.56 18.05 0 7.76-3.93 14.36-10.74 18.04-3.22 1.73-6.32 2.56-9.95 2.56zm0-37.83c-6.6-.17-12.26 3.18-15.44 8.96-4.5 8.4-1.4 18.8 6.94 23.34 5.4 2.93 11.36 2.93 16.77 0 5.7-3.1 9-8.68 8.96-15.2-.04-9.5-7.76-17.14-17.22-17.1z" stroke="#fff" stroke-opacity="0" fill="#232f3e"/><use xlink:href="#t" transform="matrix(1,0,0,1,770,1189) translate(19.475308641975303 17.77777777777778)"/><path d="M917 1083.7l-6.2 4.65-6.07 4.96-5.97 5.32-5.9 5.72-5.86 6.17-5.84 6.7-5.86 7.3-5.88 8-4.58 6.82-4.15-2.8 4.63-6.9 6-8.16 6-7.47 5.98-6.86 6-6.32 6.06-5.86 6.13-5.45 6.2-5.08 2.26-1.7h8.45m256.77-45.5l-.05 5-63.66-.76-42.83.52-24.4 1.36-18.26 1.8-14.92 2.1-12.75 2.35-5.02 1.13h-19.7l2-.63 10.28-2.8 11.43-2.6 12.95-2.4 15.13-2.13 18.48-1.82 24.6-1.37 43-.52" fill="#5e5e5e"/><path d="M864.87 1139.26l-1.4 2.1-3.25-2.1-1.05-.48 1.55-2.3M1191.9 1039.9l-14.3 4.47.1-9.27z" fill="#5e5e5e"/><path d="M1200 1040l-24.95 7.78.2-16.15m4.88 9.33l3.7-1.15-3.67-1.23" fill="#5e5e5e"/><use xlink:href="#u" transform="matrix(1,0,0,1,785.8274545031408,1050.7349319401094) translate(0 21.333333333333332)"/><use xlink:href="#v" transform="matrix(1,0,0,1,785.8274545031408,1050.7349319401094) translate(97.55555555555554 21.333333333333332)"/><use xlink:href="#w" transform="matrix(1,0,0,1,785.8274545031408,1050.7349319401094) translate(119.77777777777777 21.333333333333332)"/><use xlink:href="#x" transform="matrix(1,0,0,1,785.8274545031408,1050.7349319401094) translate(223.1111111111111 21.333333333333332)"/><path d="M1234.6 997.5l-.2-9.56-.74-11.7-1.2-11.4-1.63-11.07-2.06-10.82-2.48-10.57-2.9-10.35-3.3-10.14-3.7-9.97-4.1-9.77-4.53-9.62-4.95-9.46-5.38-9.3-5.82-9.18-6.28-9.04-6.75-8.9-7.25-8.75-7.75-8.6-8.28-8.44-8.82-8.3-9.4-8.1-9.96-7.9-10.56-7.66-11.18-7.42-11.8-7.14-12.4-6.83-13.05-6.46-13.66-6.08-14.27-5.64-14.83-5.17-15.4-4.64-15.9-4.07-16.34-3.48-16.77-2.83-17.12-2.16-17.4-1.46-1.64-.07" stroke="#5e5e5e" stroke-width="5" fill="none"/><path d="M1237.18 1001.46l-2.53-1.46-2.47 1.43-.08-3.95 5-.1" fill="#5e5e5e"/><path d="M908.1 714.9l14.4-4.18-.3 9.26z" stroke="#5e5e5e" stroke-width="5" fill="#5e5e5e"/><use xlink:href="#y" transform="matrix(1,0,0,1,969.2214417709775,934.2708868922975) translate(0 21.333333333333332)"/><use xlink:href="#z" transform="matrix(1,0,0,1,969.2214417709775,934.2708868922975) translate(130.14814814814812 21.333333333333332)"/><use xlink:href="#A" transform="matrix(1,0,0,1,969.2214417709775,934.2708868922975) translate(177.4074074074074 21.333333333333332)"/><path d="M300.08 659.66l.33-10.86.94-12.75 1.4-12.2 1.86-11.74 2.27-11.3 2.7-10.96 3.06-10.6 3.47-10.34 3.87-10.07 4.25-9.86 4.67-9.66 5.07-9.48 5.53-9.35 6-9.24 6.47-9.13 7.02-9.05 7.57-8.98 8.2-8.92 8.9-8.9 9.6-8.84 10.44-8.8 11.34-8.8 12.32-8.77 13.42-8.72 14.63-8.65 16-8.57 17.47-8.45 19.12-8.28 20.92-8.04 22.87-7.7 24.96-7.25 27.17-6.68 29.42-5.94 31.6-5 33.64-3.9 35.3-2.62 21.25-.66" stroke="#5e5e5e" stroke-width="5" fill="none"/><path d="M302.58 659.67l-.08 2.64-.44-.1-3.7-.06-.87.2.08-2.82" fill="#5e5e5e"/><path d="M771.9 340.17l-14.15 4.95-.2-9.27z" stroke="#5e5e5e" stroke-width="5" fill="#5e5e5e"/><use xlink:href="#B" transform="matrix(1,0,0,1,291.88277214404235,378.62029660554407) translate(0 21.333333333333332)"/><path d="M777.5 364.7l-40.38.82-38.87 2.44-35.02 3.66-31.45 4.64-28.23 5.37-25.38 5.95-22.87 6.37-20.65 6.7-18.72 6.96-17.03 7.16-15.53 7.3-14.22 7.44-13.05 7.53-12.03 7.63-11.1 7.72-10.3 7.8-9.55 7.9-8.9 8-8.28 8.13-7.74 8.24-7.23 8.38-6.77 8.54-6.33 8.72-5.93 8.92-5.54 9.15-5.17 9.4-4.82 9.72-4.46 10.03-4.1 10.4-3.78 10.82-3.4 11.3-3.04 11.82-1.33 6.26" stroke="#5e5e5e" stroke-width="5" fill="none"/><path d="M780 367.14l-2.52.05-.1-5 2.62-.06" fill="#5e5e5e"/><path d="M323.42 632.4l-2.13-14.84 9.13 1.6z" stroke="#5e5e5e" stroke-width="5" fill="#5e5e5e"/><use xlink:href="#C" transform="matrix(1,0,0,1,376.90281107547014,502.0143035301003) translate(0 21.333333333333332)"/><path d="M342.5 680h412.64" stroke="#5e5e5e" stroke-width="5" fill="none"/><path d="M342.57 682.5H337v-.72h1.78l.86-.35.36-.88v-3.05h2.57" fill="#5e5e5e"/><path d="M771.9 680l-14.26 4.64v-9.28z" stroke="#5e5e5e" stroke-width="5" fill="#5e5e5e"/><use xlink:href="#D" transform="matrix(1,0,0,1,466.4107073744075,644.0000000000001) translate(0 21.333333333333332)"/><use xlink:href="#E" transform="matrix(1,0,0,1,466.4107073744075,644.0000000000001) translate(76.29629629629629 21.333333333333332)"/><path d="M777.5 704.57H351.82" stroke="#5e5e5e" stroke-width="5" fill="none"/><path d="M780 707.07h-2.56v-5H780" fill="#5e5e5e"/><path d="M335.05 704.57l14.27-4.63v9.27z" stroke="#5e5e5e" stroke-width="5" fill="#5e5e5e"/><use xlink:href="#F" transform="matrix(1,0,0,1,453.7767208587777,708.5718162843394) translate(0 21.333333333333332)"/><use xlink:href="#G" transform="matrix(1,0,0,1,453.7767208587777,708.5718162843394) translate(103.48148148148148 21.333333333333332)"/><path d="M1043.95 624.03H1031c-.65 0-1.26-.38-1.52-.98l-18.14-38.9h-7.32c-.9 0-1.7-.75-1.7-1.68v-11.22c0-.92.8-1.68 1.7-1.68h16.15c.7 0 1.26.38 1.52.98l18.1 38.9h4.15c.9 0 1.68.75 1.68 1.73v11.17c0 .92-.78 1.68-1.68 1.68zm-11.9-3.43h10.16v-7.73h-3.5c-.64 0-1.25-.38-1.5-.98l-18.07-38.96h-13.38v7.8h6.67c.7 0 1.3.37 1.56.97z" stroke="#fff" stroke-opacity="0" fill="#d86613"/><path d="M1008.8 624.03H995c-.9 0-1.68-.77-1.68-1.7 0-.28.05-.48.17-.72l14.45-30.26c.3-.6.87-.97 1.53-.97.67 0 1.24.33 1.54.94l6.9 14.32c.23.47.23.97 0 1.45l-7.55 16c-.3.6-.87.96-1.54.96zm-11.1-3.4h10.02l6.8-14.27-5.1-10.37z" stroke="#fff" stroke-opacity="0" fill="#d86613"/><path d="M1020 640c-22.08 0-40-17.92-40-40s17.92-40 40-40 40 17.92 40 40-17.92 40-40 40zm0-76.56c-20.24 0-36.56 16.32-36.56 36.56 0 20.24 16.32 36.56 36.56 36.56 20.24 0 36.56-16.32 36.56-36.56 0-20.24-16.32-36.56-36.56-36.56z" stroke="#fff" stroke-opacity="0" fill="#d86613"/><use xlink:href="#H" transform="matrix(1,0,0,1,950,649) translate(18.858024691358025 17.77777777777778)"/><use xlink:href="#I" transform="matrix(1,0,0,1,950,649) translate(27.469135802469133 44.44444444444444)"/><path d="M902.5 679.9l1.05-.1 1.44-.24 1.27-.28 1.16-.33 1.05-.38.98-.42.9-.46.87-.52.82-.55.8-.6.76-.68.76-.75.75-.84.76-.96.77-1.1.78-1.33.84-1.6.9-2.05 1.03-2.82 1.4-4.77 5.64-21.8 1.64-4.45 1.56-3.57 1.57-3.02 1.6-2.68 1.66-2.4 1.73-2.22 1.82-2.05 1.95-1.93 2.08-1.82 2.26-1.73 2.45-1.66 2.72-1.6 3.02-1.53 2.62-1.12" stroke="#5e5e5e" stroke-width="5" fill="none"/><path d="M902.64 682.42l-2.64.08v-5l2.5-.08" fill="#5e5e5e"/><path d="M972.12 601.8l-12.87 7.72-2.08-9.03z" stroke="#5e5e5e" stroke-width="5" fill="#5e5e5e"/><path d="M1168 549.4l-12.25 11.32-9.24 7.84-7.7 6.02-6.8 4.83-6.13 4-5.67 3.37-5.32 2.87-5.05 2.45-4.85 2.1-4.7 1.8-4.57 1.55-4.48 1.3-4.43 1.1-4.42.9-4.4.7-4.43.5-4.46.35-4.55.14-2.07-.02.05-5 1.96.02 4.32-.14 4.26-.3 4.2-.5 4.2-.68 4.2-.85 4.24-1.04 4.3-1.26 4.37-1.47 4.48-1.74 4.66-2.02 4.86-2.36 5.14-2.76 5.5-3.26 5.95-3.88 6.6-4.7 7.56-5.9 9.08-7.7 12.1-11.18 60.97-60.9h7.08m129.14-70.83l-1.85.2-7.56 1.22-7.4 1.5-7.33 1.8-7.27 2.12-7.25 2.45-7.3 2.8-7.37 3.2-7.52 3.65-7.73 4.17-8.05 4.76-8.48 5.52-9.1 6.5-10.02 7.8-2.13 1.8h-7.73l6.7-5.7 10.2-7.92 9.27-6.6 8.64-5.65 8.23-4.87 7.92-4.26 7.7-3.74 7.56-3.28 7.5-2.88 7.44-2.52 7.47-2.18 7.52-1.86 7.62-1.53 7.77-1.24 1.94-.23" fill="#5e5e5e"/><path d="M1062.6 597.52l-.06 5-2.7-.02.16-2.5-.1-2.5M1378.15 410.52l-13.95 5.53-.6-9.25z" fill="#5e5e5e"/><path d="M1386.22 410l-24.3 9.64-1.02-16.12m5.58 8.94l3.6-1.43-3.75-.96" fill="#5e5e5e"/><use xlink:href="#J" transform="matrix(1,0,0,1,1160.3661433325672,463.57105760031993) translate(0 14.222222222222223)"/><use xlink:href="#K" transform="matrix(1,0,0,1,1160.3661433325672,463.57105760031993) translate(52.19753086419754 14.222222222222223)"/><use xlink:href="#L" transform="matrix(1,0,0,1,1160.3661433325672,463.57105760031993) translate(92.64197530864199 14.222222222222223)"/><use xlink:href="#M" transform="matrix(1,0,0,1,1160.3661433325672,463.57105760031993) translate(136.98765432098767 14.222222222222223)"/><path d="M1443.07 760c-18.96 0-49.17-4.3-49.55-15.9L1380 643.94c-.25-1.67.76-3.23 2.4-3.6 1.64-.23 3.3.85 3.67 2.52 1.4 5.75 23.9 13.76 57.13 13.76 33.24 0 55.74-8 57.13-13.76.38-1.67 2.03-2.75 3.67-2.5 1.64.35 2.65 1.9 2.4 3.58l-13.78 100.14c0 3.94-3.66 7.3-10.5 10.04-3.15 1.2-5.93 2.03-9.22 2.75-10.36 2.26-19.2 3.1-29.83 3.1zm-55.87-107.9l12.14 91.5v.37c0 3.6 17.06 10.17 43.6 10.17 10.12.12 18.6-.84 28.45-2.87 3.02-.72 5.55-1.56 8.46-2.76 5.43-2.14 6.7-4.05 6.7-4.65v-.36l12.26-91.4c-11.5 6.8-34.64 10.5-55.87 10.5-21.24 0-44.24-3.7-55.75-10.5z" stroke="#fff" stroke-opacity="0" fill="#3f8624"/><path d="M1443.1 662.57c-28.27 0-59.94-6.4-62.96-18.22v-1.62-.38c0-13.16 33.3-22.35 63.2-22.35 29.92 0 62.97 9.2 62.97 22.35v.38l-.1 1.23v.4c-3.3 11.82-34.96 18.2-63.1 18.2zM1385.94 643c1.9 5.73 24.23 13.6 57.16 13.6 32.93 0 55.26-7.87 57.16-13.6v-.82c-.38-5.8-23.85-16.22-57.16-16.22-33.3 0-56.9 10.43-57.3 16.22zM1506.4 703.76c-14.12 0-45.2-14.02-64.6-23.56l2.6-5.36c26.8 13.2 58.38 25.4 63.8 23.07-.42-.83-2.45-3.53-11.94-8.7l-.43-.28 2.97-5.18.43.3c9.56 5.23 14.13 9.3 14.92 13.12.3 1.65-.14 3.2-1.23 4.52-1.8 1.65-4.06 2.37-6.52 2.08z" stroke="#fff" stroke-opacity="0" fill="#3f8624"/><path d="M1443.1 684.04c-3.57 0-6.47-2.9-6.47-6.46 0-3.57 2.9-6.47 6.47-6.47 3.56 0 6.46 2.9 6.46 6.48 0 3.57-2.9 6.45-6.46 6.46zm0-6.97h-.03c-.28 0-.52.22-.5.5 0 .58 1.03.58 1.03 0v-.06c0-.27-.22-.5-.5-.5z" stroke="#fff" stroke-opacity="0" fill="#3f8624"/><g><use xlink:href="#N" transform="matrix(1,0,0,1,1350,768.9999999999999) translate(4.413580246913568 17.77777777777778)"/><use xlink:href="#o" transform="matrix(1,0,0,1,1350,768.9999999999999) translate(89.35185185185185 17.77777777777778)"/><use xlink:href="#p" transform="matrix(1,0,0,1,1350,768.9999999999999) translate(122.68518518518519 17.77777777777778)"/></g><path d="M1062.5 600l7 .04 9.14.42 8.88.78 8.73 1.14 8.72 1.5 8.85 1.93 9.17 2.4 9.75 3 10.83 3.83 12.95 5.2 19.02 8.62 67.27 32.1 16.38 6.57 14.54 5.14 13.8 4.23 13.56 3.53 13.67 2.97 14.05 2.43 14.67 1.9 15.5 1.38 2.38.12" stroke="#5e5e5e" stroke-width="5" fill="none"/><path d="M1062.58 597.5l-.02 5h-2.72l.16-2.5-.1-2.5" fill="#5e5e5e"/><path d="M1378.13 689.74l-14.4 4.2.3-9.28z" stroke="#5e5e5e" stroke-width="5" fill="#5e5e5e"/><path d="M1384.37 1000.83l-12.46 7.9-11.56 6.7-10.74 5.62-9.97 4.7-9.25 3.88-8.6 3.2-8.04 2.62-7.52 2.1-7.05 1.66-6.63 1.28-6.27.92-5.94.63-5.64.36-2.84.05-.1-5 2.72-.06 5.43-.35 5.74-.6 6.06-.9 6.43-1.23 6.85-1.6 7.3-2.05 7.84-2.55 8.42-3.13 9.06-3.83 9.77-4.6 10.56-5.52 11.4-6.6 12.27-7.8 5.92-4.1h8.76m137.57-301.67l2.5.8 2.3.87 2.16.9 2.02.95 1.87.98 1.76 1.02 1.66 1.05 1.56 1.1 1.48 1.1 1.4 1.17 1.34 1.2 1.27 1.25 1.2 1.3 1.17 1.32 1.1 1.38 1.04 1.44 1 1.5.95 1.57.9 1.64.86 1.72.8 1.82.76 1.92.7 2.02.65 2.16.6 2.3.52 2.44.45 2.63.36 2.84.25 3.06.14 3.33v3.63l-.17 4-.37 4.4-.62 4.86-.9 5.4-1.3 6.07-1.75 6.8-2.3 7.66-3.03 8.65-3.87 9.78-4.93 11.04-6.17 12.42-7.6 13.84-9.24 15.22-10.9 16.4-12.56 17.28-13.97 17.63-15.04 17.4-5.96 6.34h-6.86l9.1-9.68 14.9-17.26 13.84-17.46 12.42-17.1 10.8-16.24 9.12-15.04 7.5-13.66 6.1-12.23 4.83-10.85 3.8-9.6 2.94-8.44 2.25-7.46 1.7-6.6 1.23-5.85.9-5.2.58-4.67.36-4.2.16-3.77v-3.43l-.13-3.13-.25-2.86-.33-2.62-.4-2.42-.5-2.25-.52-2.08-.6-1.95-.63-1.83-.68-1.72-.73-1.63-.77-1.55-.8-1.46-.84-1.4-.88-1.33-.93-1.27-.97-1.22-1-1.18-1.08-1.13-1.12-1.1-1.18-1.06-1.24-1.02-1.32-1-1.4-.96-1.47-.94-1.58-.92-1.7-.88-1.82-.85-1.96-.83-2.12-.78-2.3-.75-.44-.12 1.34-4.82" fill="#5e5e5e"/><path d="M1271.92 1042.45l-2.62.05v-5l2.52-.05M1529.65 697.43l-13.57-6.4 14.74-2.8z" fill="#5e5e5e"/><path d="M1531.7 701.16L1508.05 690l25.68-4.86m-9.63 6.9l3.5 1.66.3-2.37" fill="#5e5e5e"/><path d="M1403.5 993.37l-11.43 7.96-10.93 6.94-10.46 6.04-10.03 5.26-9.63 4.53-9.28 3.9-8.94 3.32-8.66 2.82-8.4 2.34-8.16 1.92-7.96 1.52-7.8 1.15-7.62.8-7.5.47-4.84.1-.1-5 4.73-.1 7.28-.45 7.43-.8 7.58-1.1 7.76-1.5 7.96-1.86 8.2-2.3 8.45-2.74 8.75-3.26 9.08-3.82 9.44-4.44 9.85-5.15 10.27-5.94 10.76-6.84 6.64-4.62h8.65m128.8-583l5.3 1 5.02 1.17 4.73 1.33 4.48 1.46 4.27 1.57 4.06 1.7 3.9 1.84 3.72 1.96 3.6 2.07 3.45 2.2 3.33 2.32 3.24 2.45 3.13 2.6 3.04 2.73 2.96 2.9 2.88 3.07 2.82 3.25 2.73 3.45 2.67 3.67 2.6 3.92 2.54 4.17 2.46 4.48 2.38 4.8 2.3 5.2 2.22 5.58 2.1 6.05 2 6.58 1.83 7.17 1.67 7.84 1.45 8.6 1.2 9.47.87 10.45.48 11.54v12.8l-.6 14.2-1.33 15.75-2.22 17.43-3.26 19.22-4.5 21.08-5.87 22.88-7.4 24.55-9.03 25.88-10.6 26.8-12.1 27.13-13.33 26.88-14.32 26.02-14.93 24.67-15.25 22.96-15.27 21.03-15.08 19.03-10.42 12.08h-6.6l13.17-15.27 14.94-18.87 15.15-20.86 15.13-22.8 14.82-24.48 14.2-25.84 13.25-26.7 12-26.94 10.53-26.6 8.95-25.68 7.36-24.34 5.82-22.67 4.45-20.88 3.23-19.03 2.18-17.23 1.32-15.54.6-14v-12.6l-.47-11.33-.86-10.24-1.18-9.25-1.42-8.4-1.62-7.63-1.8-6.97-1.9-6.37-2.05-5.86-2.13-5.4-2.22-4.98-2.3-4.63-2.36-4.3-2.42-4-2.48-3.74-2.55-3.5-2.6-3.3-2.68-3.1-2.74-2.9-2.8-2.75-2.9-2.6-2.97-2.46-3.08-2.33-3.16-2.2-3.28-2.1-3.4-1.96-3.55-1.85-3.7-1.75-3.88-1.63-4.06-1.5-4.3-1.4-4.52-1.26-4.8-1.13-5.12-.97-.12-.02.73-4.95" fill="#5e5e5e"/><path d="M1271.92 1042.45l-2.62.05v-5l2.52-.05M1529.98 416.4l-13.86-5.76 14.6-3.5z" fill="#5e5e5e"/><path d="M1532.2 420.02L1508.06 410l25.42-6.08m-9.3 7.36l3.58 1.48.2-2.38" fill="#5e5e5e"/><g><use xlink:href="#O" transform="matrix(1,0,0,1,1298.544463618453,928.5447783748776) translate(0 21.333333333333332)"/><use xlink:href="#P" transform="matrix(1,0,0,1,1298.544463618453,928.5447783748776) translate(122.8148148148148 21.333333333333332)"/><use xlink:href="#Q" transform="matrix(1,0,0,1,1298.544463618453,928.5447783748776) translate(227.85185185185182 21.333333333333332)"/><use xlink:href="#R" transform="matrix(1,0,0,1,1298.544463618453,928.5447783748776) translate(0 53.33333333333333)"/><use xlink:href="#S" transform="matrix(1,0,0,1,1298.544463618453,928.5447783748776) translate(26.592592592592588 53.33333333333333)"/><use xlink:href="#T" transform="matrix(1,0,0,1,1298.544463618453,928.5447783748776) translate(121.11111111111111 53.33333333333333)"/><use xlink:href="#U" transform="matrix(1,0,0,1,1298.544463618453,928.5447783748776) translate(153.55555555555554 53.33333333333333)"/></g><defs><path fill="#147eba" d="M85 4C-2 5 27-109 22-190h50c7 57-23 150 33 157 60-5 35-97 40-157h50l1 190h-47c-2-12 1-28-3-38-12 25-28 42-61 42" id="V"/><path fill="#147eba" d="M137-138c1-29-70-34-71-4 15 46 118 7 119 86 1 83-164 76-172 9l43-7c4 19 20 25 44 25 33 8 57-30 24-41C81-84 22-81 20-136c-2-80 154-74 161-7" id="W"/><path fill="#147eba" d="M14-72v-43h91v43H14" id="X"/><path fill="#147eba" d="M185-48c-13 30-37 53-82 52C43 2 14-33 14-96s30-98 90-98c62 0 83 45 84 108H66c0 31 8 55 39 56 18 0 30-7 34-22zm-45-69c5-46-57-63-70-21-2 6-4 13-4 21h74" id="Y"/><path fill="#147eba" d="M133-34C117-15 103 5 69 4 32 3 11-16 11-54c-1-60 55-63 116-61 1-26-3-47-28-47-18 1-26 9-28 27l-52-2c7-38 36-58 82-57s74 22 75 68l1 82c-1 14 12 18 25 15v27c-30 8-71 5-69-32zm-48 3c29 0 43-24 42-57-32 0-66-3-65 30 0 17 8 27 23 27" id="Z"/><path fill="#147eba" d="M115-3C79 11 28 4 28-45v-112H4v-33h27l15-45h31v45h36v33H77v99c-1 23 16 31 38 25v30" id="aa"/><path fill="#147eba" d="M23 0v-37h61v-169l-59 37v-38l62-41h46v211h57V0H23" id="ab"/><g id="a"><use transform="matrix(0.06234567901234567,0,0,0.06234567901234567,0,0)" xlink:href="#V"/><use transform="matrix(0.06234567901234567,0,0,0.06234567901234567,13.653703703703702,0)" xlink:href="#W"/><use transform="matrix(0.06234567901234567,0,0,0.06234567901234567,26.122839506172834,0)" xlink:href="#X"/><use transform="matrix(0.06234567901234567,0,0,0.06234567901234567,33.541975308641966,0)" xlink:href="#Y"/><use transform="matrix(0.06234567901234567,0,0,0.06234567901234567,46.0111111111111,0)" xlink:href="#Z"/><use transform="matrix(0.06234567901234567,0,0,0.06234567901234567,58.48024691358023,0)" xlink:href="#W"/><use transform="matrix(0.06234567901234567,0,0,0.06234567901234567,70.94938271604937,0)" xlink:href="#aa"/><use transform="matrix(0.06234567901234567,0,0,0.06234567901234567,78.3685185185185,0)" xlink:href="#X"/><use transform="matrix(0.06234567901234567,0,0,0.06234567901234567,85.78765432098763,0)" xlink:href="#ab"/></g><path fill="#147eba" d="M231 0h-52l-39-155L100 0H48L-1-190h46L77-45c9-52 24-97 36-145h53l37 145 32-145h46" id="ac"/><path fill="#147eba" d="M182-182c0 78-84 86-111 141h115V0H12c-6-101 99-100 120-180 1-22-12-31-33-32-23 0-32 14-35 34l-49-3c5-45 32-70 84-70 51 0 83 22 83 69" id="ad"/><g id="b"><use transform="matrix(0.06234567901234567,0,0,0.06234567901234567,0,0)" xlink:href="#V"/><use transform="matrix(0.06234567901234567,0,0,0.06234567901234567,13.653703703703702,0)" xlink:href="#W"/><use transform="matrix(0.06234567901234567,0,0,0.06234567901234567,26.122839506172834,0)" xlink:href="#X"/><use transform="matrix(0.06234567901234567,0,0,0.06234567901234567,33.541975308641966,0)" xlink:href="#ac"/><use transform="matrix(0.06234567901234567,0,0,0.06234567901234567,50.99876543209875,0)" xlink:href="#Y"/><use transform="matrix(0.06234567901234567,0,0,0.06234567901234567,63.46790123456788,0)" xlink:href="#W"/><use transform="matrix(0.06234567901234567,0,0,0.06234567901234567,75.93703703703702,0)" xlink:href="#aa"/><use transform="matrix(0.06234567901234567,0,0,0.06234567901234567,83.35617283950614,0)" xlink:href="#X"/><use transform="matrix(0.06234567901234567,0,0,0.06234567901234567,90.77530864197527,0)" xlink:href="#ad"/></g><path fill="#333" d="M233-177c-1 41-23 64-60 70L243 0h-38l-65-103H63V0H30v-248c88 3 205-21 203 71zM63-129c60-2 137 13 137-47 0-61-80-42-137-45v92" id="ae"/><path fill="#333" d="M100-194c63 0 86 42 84 106H49c0 40 14 67 53 68 26 1 43-12 49-29l28 8c-11 28-37 45-77 45C44 4 14-33 15-96c1-61 26-98 85-98zm52 81c6-60-76-77-97-28-3 7-6 17-6 28h103" id="af"/><path fill="#333" d="M206 0h-36l-40-164L89 0H53L-1-190h32L70-26l43-164h34l41 164 42-164h31" id="ag"/><path fill="#333" d="M114-163C36-179 61-72 57 0H25l-1-190h30c1 12-1 29 2 39 6-27 23-49 58-41v29" id="ah"/><path fill="#333" d="M24-231v-30h32v30H24zM24 0v-190h32V0H24" id="ai"/><path fill="#333" d="M59-47c-2 24 18 29 38 22v24C64 9 27 4 27-40v-127H5v-23h24l9-43h21v43h35v23H59v120" id="aj"/><path fill="#333" d="M135-143c-3-34-86-38-87 0 15 53 115 12 119 90S17 21 10-45l28-5c4 36 97 45 98 0-10-56-113-15-118-90-4-57 82-63 122-42 12 7 21 19 24 35" id="ak"/><g id="c"><use transform="matrix(0.06790123456790123,0,0,0.06790123456790123,0,0)" xlink:href="#ae"/><use transform="matrix(0.06790123456790123,0,0,0.06790123456790123,17.586419753086417,0)" xlink:href="#af"/><use transform="matrix(0.06790123456790123,0,0,0.06790123456790123,31.166666666666664,0)" xlink:href="#ag"/><use transform="matrix(0.06790123456790123,0,0,0.06790123456790123,48.75308641975308,0)" xlink:href="#ah"/><use transform="matrix(0.06790123456790123,0,0,0.06790123456790123,56.83333333333333,0)" xlink:href="#ai"/><use transform="matrix(0.06790123456790123,0,0,0.06790123456790123,62.197530864197525,0)" xlink:href="#aj"/><use transform="matrix(0.06790123456790123,0,0,0.06790123456790123,68.98765432098764,0)" xlink:href="#af"/><use transform="matrix(0.06790123456790123,0,0,0.06790123456790123,82.5679012345679,0)" xlink:href="#ak"/></g><path fill="#333" d="M145-31C134-9 116 4 85 4 32 4 16-35 15-94c0-59 17-99 70-100 32-1 48 14 60 33 0-11-1-24 2-32h30l-1 268h-32zM93-21c41 0 51-33 51-76s-8-73-50-73c-40 0-46 35-46 75s5 74 45 74" id="al"/><path fill="#333" d="M84 4C-5 8 30-112 23-190h32v120c0 31 7 50 39 49 72-2 45-101 50-169h31l1 190h-30c-1-10 1-25-2-33-11 22-28 36-60 37" id="am"/><g id="d"><use transform="matrix(0.06790123456790123,0,0,0.06790123456790123,0,0)" xlink:href="#ah"/><use transform="matrix(0.06790123456790123,0,0,0.06790123456790123,8.080246913580247,0)" xlink:href="#af"/><use transform="matrix(0.06790123456790123,0,0,0.06790123456790123,21.660493827160494,0)" xlink:href="#al"/><use transform="matrix(0.06790123456790123,0,0,0.06790123456790123,35.24074074074074,0)" xlink:href="#am"/><use transform="matrix(0.06790123456790123,0,0,0.06790123456790123,48.82098765432099,0)" xlink:href="#af"/><use transform="matrix(0.06790123456790123,0,0,0.06790123456790123,62.401234567901234,0)" xlink:href="#ak"/><use transform="matrix(0.06790123456790123,0,0,0.06790123456790123,74.62345679012346,0)" xlink:href="#aj"/><use transform="matrix(0.06790123456790123,0,0,0.06790123456790123,81.41358024691358,0)" xlink:href="#ak"/></g><path fill="#333" d="M100-194c62-1 85 37 85 99 1 63-27 99-86 99S16-35 15-95c0-66 28-99 85-99zM99-20c44 1 53-31 53-75 0-43-8-75-51-75s-53 32-53 75 10 74 51 75" id="an"/><g id="e"><use transform="matrix(0.06790123456790123,0,0,0.06790123456790123,0,0)" xlink:href="#aj"/><use transform="matrix(0.06790123456790123,0,0,0.06790123456790123,6.790123456790123,0)" xlink:href="#an"/></g><path fill="#333" d="M0 4l72-265h28L28 4H0" id="ao"/><path fill="#333" d="M117-194c89-4 53 116 60 194h-32v-121c0-31-8-49-39-48C34-167 62-67 57 0H25l-1-190h30c1 10-1 24 2 32 11-22 29-35 61-36" id="ap"/><path fill="#333" d="M85-194c31 0 48 13 60 33l-1-100h32l1 261h-30c-2-10 0-23-3-31C134-8 116 4 85 4 32 4 16-35 15-94c0-66 23-100 70-100zm9 24c-40 0-46 34-46 75 0 40 6 74 45 74 42 0 51-32 51-76 0-42-9-74-50-73" id="aq"/><path fill="#333" d="M141 0L90-78 38 0H4l68-98-65-92h35l48 74 47-74h35l-64 92 68 98h-35" id="ar"/><path fill="#333" d="M33 0v-38h34V0H33" id="as"/><path fill="#333" d="M106-169C34-169 62-67 57 0H25v-261h32l-1 103c12-21 28-36 61-36 89 0 53 116 60 194h-32v-121c2-32-8-49-39-48" id="at"/><path fill="#333" d="M210-169c-67 3-38 105-44 169h-31v-121c0-29-5-50-35-48C34-165 62-65 56 0H25l-1-190h30c1 10-1 24 2 32 10-44 99-50 107 0 11-21 27-35 58-36 85-2 47 119 55 194h-31v-121c0-29-5-49-35-48" id="au"/><path fill="#333" d="M24 0v-261h32V0H24" id="av"/><g id="f"><use transform="matrix(0.06790123456790123,0,0,0.06790123456790123,0,0)" xlink:href="#ao"/><use transform="matrix(0.06790123456790123,0,0,0.06790123456790123,6.790123456790123,0)" xlink:href="#ai"/><use transform="matrix(0.06790123456790123,0,0,0.06790123456790123,12.15432098765432,0)" xlink:href="#ap"/><use transform="matrix(0.06790123456790123,0,0,0.06790123456790123,25.734567901234566,0)" xlink:href="#aq"/><use transform="matrix(0.06790123456790123,0,0,0.06790123456790123,39.31481481481481,0)" xlink:href="#af"/><use transform="matrix(0.06790123456790123,0,0,0.06790123456790123,52.895061728395056,0)" xlink:href="#ar"/><use transform="matrix(0.06790123456790123,0,0,0.06790123456790123,65.11728395061728,0)" xlink:href="#as"/><use transform="matrix(0.06790123456790123,0,0,0.06790123456790123,71.9074074074074,0)" xlink:href="#at"/><use transform="matrix(0.06790123456790123,0,0,0.06790123456790123,85.48765432098764,0)" xlink:href="#aj"/><use transform="matrix(0.06790123456790123,0,0,0.06790123456790123,92.27777777777777,0)" xlink:href="#au"/><use transform="matrix(0.06790123456790123,0,0,0.06790123456790123,112.58024691358024,0)" xlink:href="#av"/></g><path fill="#232f3e" d="M205 0l-28-72H64L36 0H1l101-248h38L239 0h-34zm-38-99l-47-123c-12 45-31 82-46 123h93" id="aw"/><path fill="#232f3e" d="M266 0h-40l-56-210L115 0H75L2-248h35L96-30l15-64 43-154h32l59 218 59-218h35" id="ax"/><path fill="#232f3e" d="M185-189c-5-48-123-54-124 2 14 75 158 14 163 119 3 78-121 87-175 55-17-10-28-26-33-46l33-7c5 56 141 63 141-1 0-78-155-14-162-118-5-82 145-84 179-34 5 7 8 16 11 25" id="ay"/><g id="g"><use transform="matrix(0.05,0,0,0.05,0,0)" xlink:href="#aw"/><use transform="matrix(0.05,0,0,0.05,11.35,0)" xlink:href="#ax"/><use transform="matrix(0.05,0,0,0.05,28.299999999999997,0)" xlink:href="#ay"/></g><path fill="#232f3e" d="M212-179c-10-28-35-45-73-45-59 0-87 40-87 99 0 60 29 101 89 101 43 0 62-24 78-52l27 14C228-24 195 4 139 4 59 4 22-46 18-125c-6-104 99-153 187-111 19 9 31 26 39 46" id="az"/><path fill="#232f3e" d="M24 0v-261h32V0H24" id="aA"/><path fill="#232f3e" d="M100-194c62-1 85 37 85 99 1 63-27 99-86 99S16-35 15-95c0-66 28-99 85-99zM99-20c44 1 53-31 53-75 0-43-8-75-51-75s-53 32-53 75 10 74 51 75" id="aB"/><path fill="#232f3e" d="M84 4C-5 8 30-112 23-190h32v120c0 31 7 50 39 49 72-2 45-101 50-169h31l1 190h-30c-1-10 1-25-2-33-11 22-28 36-60 37" id="aC"/><path fill="#232f3e" d="M85-194c31 0 48 13 60 33l-1-100h32l1 261h-30c-2-10 0-23-3-31C134-8 116 4 85 4 32 4 16-35 15-94c0-66 23-100 70-100zm9 24c-40 0-46 34-46 75 0 40 6 74 45 74 42 0 51-32 51-76 0-42-9-74-50-73" id="aD"/><g id="h"><use transform="matrix(0.05,0,0,0.05,0,0)" xlink:href="#az"/><use transform="matrix(0.05,0,0,0.05,12.950000000000001,0)" xlink:href="#aA"/><use transform="matrix(0.05,0,0,0.05,16.900000000000002,0)" xlink:href="#aB"/><use transform="matrix(0.05,0,0,0.05,26.900000000000002,0)" xlink:href="#aC"/><use transform="matrix(0.05,0,0,0.05,36.900000000000006,0)" xlink:href="#aD"/></g><path fill="#333" d="M205 0l-28-72H64L36 0H1l101-248h38L239 0h-34zm-38-99l-47-123c-12 45-31 82-46 123h93" id="aE"/><path fill="#333" d="M141-36C126-15 110 5 73 4 37 3 15-17 15-53c-1-64 63-63 125-63 3-35-9-54-41-54-24 1-41 7-42 31l-33-3c5-37 33-52 76-52 45 0 72 20 72 64v82c-1 20 7 32 28 27v20c-31 9-61-2-59-35zM48-53c0 20 12 33 32 33 41-3 63-29 60-74-43 2-92-5-92 41" id="aF"/><path fill="#333" d="M9 0v-24l116-142H16v-24h144v24L44-24h123V0H9" id="aG"/><g id="i"><use transform="matrix(0.06172839506172839,0,0,0.06172839506172839,0,0)" xlink:href="#aE"/><use transform="matrix(0.06172839506172839,0,0,0.06172839506172839,14.814814814814813,0)" xlink:href="#au"/><use transform="matrix(0.06172839506172839,0,0,0.06172839506172839,33.2716049382716,0)" xlink:href="#aF"/><use transform="matrix(0.06172839506172839,0,0,0.06172839506172839,45.61728395061728,0)" xlink:href="#aG"/><use transform="matrix(0.06172839506172839,0,0,0.06172839506172839,56.72839506172839,0)" xlink:href="#an"/><use transform="matrix(0.06172839506172839,0,0,0.06172839506172839,69.07407407407408,0)" xlink:href="#ap"/></g><path fill="#333" d="M212-179c-10-28-35-45-73-45-59 0-87 40-87 99 0 60 29 101 89 101 43 0 62-24 78-52l27 14C228-24 195 4 139 4 59 4 22-46 18-125c-6-104 99-153 187-111 19 9 31 26 39 46" id="aH"/><path fill="#333" d="M63-220v92h138v28H63V0H30v-248h175v28H63" id="aI"/><g id="j"><use transform="matrix(0.06172839506172839,0,0,0.06172839506172839,0,0)" xlink:href="#aH"/><use transform="matrix(0.06172839506172839,0,0,0.06172839506172839,15.987654320987653,0)" xlink:href="#av"/><use transform="matrix(0.06172839506172839,0,0,0.06172839506172839,20.864197530864196,0)" xlink:href="#an"/><use transform="matrix(0.06172839506172839,0,0,0.06172839506172839,33.20987654320987,0)" xlink:href="#am"/><use transform="matrix(0.06172839506172839,0,0,0.06172839506172839,45.55555555555555,0)" xlink:href="#aq"/><use transform="matrix(0.06172839506172839,0,0,0.06172839506172839,57.90123456790123,0)" xlink:href="#aI"/><use transform="matrix(0.06172839506172839,0,0,0.06172839506172839,71.41975308641975,0)" xlink:href="#ah"/><use transform="matrix(0.06172839506172839,0,0,0.06172839506172839,78.76543209876543,0)" xlink:href="#an"/><use transform="matrix(0.06172839506172839,0,0,0.06172839506172839,91.11111111111111,0)" xlink:href="#ap"/><use transform="matrix(0.06172839506172839,0,0,0.06172839506172839,103.4567901234568,0)" xlink:href="#aj"/></g><g id="k"><use transform="matrix(0.06172839506172839,0,0,0.06172839506172839,0,0)" xlink:href="#aE"/><use transform="matrix(0.06172839506172839,0,0,0.06172839506172839,14.814814814814813,0)" xlink:href="#au"/><use transform="matrix(0.06172839506172839,0,0,0.06172839506172839,33.2716049382716,0)" xlink:href="#aF"/><use transform="matrix(0.06172839506172839,0,0,0.06172839506172839,45.61728395061728,0)" xlink:href="#aG"/><use transform="matrix(0.06172839506172839,0,0,0.06172839506172839,56.72839506172839,0)" xlink:href="#an"/><use transform="matrix(0.06172839506172839,0,0,0.06172839506172839,69.07407407407408,0)" xlink:href="#ap"/></g><g id="l"><use transform="matrix(0.06172839506172839,0,0,0.06172839506172839,0,0)" xlink:href="#ae"/><use transform="matrix(0.06172839506172839,0,0,0.06172839506172839,15.987654320987653,0)" xlink:href="#an"/><use transform="matrix(0.06172839506172839,0,0,0.06172839506172839,28.333333333333332,0)" xlink:href="#am"/><use transform="matrix(0.06172839506172839,0,0,0.06172839506172839,40.67901234567901,0)" xlink:href="#aj"/><use transform="matrix(0.06172839506172839,0,0,0.06172839506172839,46.851851851851855,0)" xlink:href="#af"/></g><path fill="#333" d="M54-142c48-35 137-8 131 61C196 18 31 33 14-55l32-4c7 23 22 37 52 37 35-1 51-22 54-58 4-55-73-65-99-34H22l8-134h141v27H59" id="aJ"/><path fill="#333" d="M126-127c33 6 58 20 58 59 0 88-139 92-164 29-3-8-5-16-6-25l32-3c6 27 21 44 54 44 32 0 52-15 52-46 0-38-36-46-79-43v-28c39 1 72-4 72-42 0-27-17-43-46-43-28 0-47 15-49 41l-32-3c6-42 35-63 81-64 48-1 79 21 79 65 0 36-21 52-52 59" id="aK"/><g id="m"><use transform="matrix(0.06172839506172839,0,0,0.06172839506172839,0,0)" xlink:href="#aJ"/><use transform="matrix(0.06172839506172839,0,0,0.06172839506172839,12.345679012345679,0)" xlink:href="#aK"/></g><path fill="#333" d="M30-248c87 1 191-15 191 75 0 78-77 80-158 76V0H30v-248zm33 125c57 0 124 11 124-50 0-59-68-47-124-48v98" id="aL"/><path fill="#333" d="M179-190L93 31C79 59 56 82 12 73V49c39 6 53-20 64-50L1-190h34L92-34l54-156h33" id="aM"/><g id="n"><use transform="matrix(0.06172839506172839,0,0,0.06172839506172839,0,0)" xlink:href="#aL"/><use transform="matrix(0.06172839506172839,0,0,0.06172839506172839,14.814814814814813,0)" xlink:href="#ah"/><use transform="matrix(0.06172839506172839,0,0,0.06172839506172839,22.160493827160494,0)" xlink:href="#ai"/><use transform="matrix(0.06172839506172839,0,0,0.06172839506172839,27.037037037037038,0)" xlink:href="#au"/><use transform="matrix(0.06172839506172839,0,0,0.06172839506172839,45.49382716049382,0)" xlink:href="#aF"/><use transform="matrix(0.06172839506172839,0,0,0.06172839506172839,57.8395061728395,0)" xlink:href="#ah"/><use transform="matrix(0.06172839506172839,0,0,0.06172839506172839,65.18518518518518,0)" xlink:href="#aM"/></g><path fill="#333" d="M185-189c-5-48-123-54-124 2 14 75 158 14 163 119 3 78-121 87-175 55-17-10-28-26-33-46l33-7c5 56 141 63 141-1 0-78-155-14-162-118-5-82 145-84 179-34 5 7 8 16 11 25" id="aN"/><g id="o"><use transform="matrix(0.06172839506172839,0,0,0.06172839506172839,0,0)" xlink:href="#aN"/><use transform="matrix(0.06172839506172839,0,0,0.06172839506172839,14.814814814814813,0)" xlink:href="#aK"/></g><path fill="#333" d="M160-131c35 5 61 23 61 61C221 17 115-2 30 0v-248c76 3 177-17 177 60 0 33-19 50-47 57zm-97-11c50-1 110 9 110-42 0-47-63-36-110-37v79zm0 115c55-2 124 14 124-45 0-56-70-42-124-44v89" id="aO"/><path fill="#333" d="M96-169c-40 0-48 33-48 73s9 75 48 75c24 0 41-14 43-38l32 2c-6 37-31 61-74 61-59 0-76-41-82-99-10-93 101-131 147-64 4 7 5 14 7 22l-32 3c-4-21-16-35-41-35" id="aP"/><path fill="#333" d="M143 0L79-87 56-68V0H24v-261h32v163l83-92h37l-77 82L181 0h-38" id="aQ"/><g id="p"><use transform="matrix(0.06172839506172839,0,0,0.06172839506172839,0,0)" xlink:href="#aO"/><use transform="matrix(0.06172839506172839,0,0,0.06172839506172839,14.814814814814813,0)" xlink:href="#am"/><use transform="matrix(0.06172839506172839,0,0,0.06172839506172839,27.160493827160494,0)" xlink:href="#aP"/><use transform="matrix(0.06172839506172839,0,0,0.06172839506172839,38.27160493827161,0)" xlink:href="#aQ"/><use transform="matrix(0.06172839506172839,0,0,0.06172839506172839,49.38271604938272,0)" xlink:href="#af"/><use transform="matrix(0.06172839506172839,0,0,0.06172839506172839,61.7283950617284,0)" xlink:href="#aj"/></g><path fill="#333" d="M115-194c53 0 69 39 70 98 0 66-23 100-70 100C84 3 66-7 56-30L54 0H23l1-261h32v101c10-23 28-34 59-34zm-8 174c40 0 45-34 45-75 0-40-5-75-45-74-42 0-51 32-51 76 0 43 10 73 51 73" id="aR"/><g id="q"><use transform="matrix(0.06172839506172839,0,0,0.06172839506172839,0,0)" xlink:href="#aL"/><use transform="matrix(0.06172839506172839,0,0,0.06172839506172839,14.814814814814813,0)" xlink:href="#am"/><use transform="matrix(0.06172839506172839,0,0,0.06172839506172839,27.160493827160494,0)" xlink:href="#aR"/><use transform="matrix(0.06172839506172839,0,0,0.06172839506172839,39.50617283950617,0)" xlink:href="#av"/><use transform="matrix(0.06172839506172839,0,0,0.06172839506172839,44.382716049382715,0)" xlink:href="#ai"/><use transform="matrix(0.06172839506172839,0,0,0.06172839506172839,49.25925925925926,0)" xlink:href="#aP"/></g><g id="r"><use transform="matrix(0.06172839506172839,0,0,0.06172839506172839,0,0)" xlink:href="#aH"/><use transform="matrix(0.06172839506172839,0,0,0.06172839506172839,15.987654320987653,0)" xlink:href="#av"/><use transform="matrix(0.06172839506172839,0,0,0.06172839506172839,20.864197530864196,0)" xlink:href="#ai"/><use transform="matrix(0.06172839506172839,0,0,0.06172839506172839,25.74074074074074,0)" xlink:href="#af"/><use transform="matrix(0.06172839506172839,0,0,0.06172839506172839,38.08641975308642,0)" xlink:href="#ap"/><use transform="matrix(0.06172839506172839,0,0,0.06172839506172839,50.432098765432094,0)" xlink:href="#aj"/><use transform="matrix(0.06172839506172839,0,0,0.06172839506172839,56.60493827160494,0)" xlink:href="#ak"/></g><path fill="#333" d="M197 0v-115H63V0H30v-248h33v105h134v-105h34V0h-34" id="aS"/><path fill="#333" d="M177-190C167-65 218 103 67 71c-23-6-38-20-44-43l32-5c15 47 100 32 89-28v-30C133-14 115 1 83 1 29 1 15-40 15-95c0-56 16-97 71-98 29-1 48 16 59 35 1-10 0-23 2-32h30zM94-22c36 0 50-32 50-73 0-42-14-75-50-75-39 0-46 34-46 75s6 73 46 73" id="aT"/><g id="s"><use transform="matrix(0.06172839506172839,0,0,0.06172839506172839,0,0)" xlink:href="#aS"/><use transform="matrix(0.06172839506172839,0,0,0.06172839506172839,15.987654320987653,0)" xlink:href="#am"/><use transform="matrix(0.06172839506172839,0,0,0.06172839506172839,28.333333333333332,0)" xlink:href="#aT"/><use transform="matrix(0.06172839506172839,0,0,0.06172839506172839,40.67901234567901,0)" xlink:href="#an"/></g><path fill="#333" d="M30-248c118-7 216 8 213 122C240-48 200 0 122 0H30v-248zM63-27c89 8 146-16 146-99s-60-101-146-95v194" id="aU"/><path fill="#333" d="M108 0H70L1-190h34L89-25l56-165h34" id="aV"/><path fill="#333" d="M115-194c55 1 70 41 70 98S169 2 115 4C84 4 66-9 55-30l1 105H24l-1-265h31l2 30c10-21 28-34 59-34zm-8 174c40 0 45-34 45-75s-6-73-45-74c-42 0-51 32-51 76 0 43 10 73 51 73" id="aW"/><g id="t"><use transform="matrix(0.06172839506172839,0,0,0.06172839506172839,0,0)" xlink:href="#aU"/><use transform="matrix(0.06172839506172839,0,0,0.06172839506172839,15.987654320987653,0)" xlink:href="#af"/><use transform="matrix(0.06172839506172839,0,0,0.06172839506172839,28.333333333333332,0)" xlink:href="#aV"/><use transform="matrix(0.06172839506172839,0,0,0.06172839506172839,39.44444444444444,0)" xlink:href="#af"/><use transform="matrix(0.06172839506172839,0,0,0.06172839506172839,51.79012345679012,0)" xlink:href="#av"/><use transform="matrix(0.06172839506172839,0,0,0.06172839506172839,56.666666666666664,0)" xlink:href="#an"/><use transform="matrix(0.06172839506172839,0,0,0.06172839506172839,69.01234567901234,0)" xlink:href="#aW"/><use transform="matrix(0.06172839506172839,0,0,0.06172839506172839,81.35802469135803,0)" xlink:href="#af"/><use transform="matrix(0.06172839506172839,0,0,0.06172839506172839,93.70370370370371,0)" xlink:href="#ah"/></g><path fill="#333" d="M136-208V0H84v-208H4v-40h212v40h-80" id="aX"/><path fill="#333" d="M135-150c-39-12-60 13-60 57V0H25l-1-190h47c2 13-1 29 3 40 6-28 27-53 61-41v41" id="aY"/><path fill="#333" d="M25-224v-37h50v37H25zM25 0v-190h50V0H25" id="aZ"/><path fill="#333" d="M195-6C206 82 75 100 31 46c-4-6-6-13-8-21l49-6c3 16 16 24 34 25 40 0 42-37 40-79-11 22-30 35-61 35-53 0-70-43-70-97 0-56 18-96 73-97 30 0 46 14 59 34l2-30h47zm-90-29c32 0 41-27 41-63 0-35-9-62-40-62-32 0-39 29-40 63 0 36 9 62 39 62" id="ba"/><path fill="#333" d="M185-48c-13 30-37 53-82 52C43 2 14-33 14-96s30-98 90-98c62 0 83 45 84 108H66c0 31 8 55 39 56 18 0 30-7 34-22zm-45-69c5-46-57-63-70-21-2 6-4 13-4 21h74" id="bb"/><g id="u"><use transform="matrix(0.07407407407407407,0,0,0.07407407407407407,0,0)" xlink:href="#aX"/><use transform="matrix(0.07407407407407407,0,0,0.07407407407407407,14.74074074074074,0)" xlink:href="#aY"/><use transform="matrix(0.07407407407407407,0,0,0.07407407407407407,25.11111111111111,0)" xlink:href="#aZ"/><use transform="matrix(0.07407407407407407,0,0,0.07407407407407407,32.51851851851852,0)" xlink:href="#ba"/><use transform="matrix(0.07407407407407407,0,0,0.07407407407407407,48.74074074074074,0)" xlink:href="#ba"/><use transform="matrix(0.07407407407407407,0,0,0.07407407407407407,64.96296296296296,0)" xlink:href="#bb"/><use transform="matrix(0.07407407407407407,0,0,0.07407407407407407,79.77777777777777,0)" xlink:href="#aY"/></g><path fill="#333" d="M133-34C117-15 103 5 69 4 32 3 11-16 11-54c-1-60 55-63 116-61 1-26-3-47-28-47-18 1-26 9-28 27l-52-2c7-38 36-58 82-57s74 22 75 68l1 82c-1 14 12 18 25 15v27c-30 8-71 5-69-32zm-48 3c29 0 43-24 42-57-32 0-66-3-65 30 0 17 8 27 23 27" id="bc"/><use transform="matrix(0.07407407407407407,0,0,0.07407407407407407,0,0)" xlink:href="#bc" id="v"/><path fill="#333" d="M190-63c-7 42-38 67-86 67-59 0-84-38-90-98-12-110 154-137 174-36l-49 2c-2-19-15-32-35-32-30 0-35 28-38 64-6 74 65 87 74 30" id="bd"/><path fill="#333" d="M110-194c64 0 96 36 96 99 0 64-35 99-97 99-61 0-95-36-95-99 0-62 34-99 96-99zm-1 164c35 0 45-28 45-65 0-40-10-65-43-65-34 0-45 26-45 65 0 36 10 65 43 65" id="be"/><path fill="#333" d="M135-194c87-1 58 113 63 194h-50c-7-57 23-157-34-157-59 0-34 97-39 157H25l-1-190h47c2 12-1 28 3 38 12-26 28-41 61-42" id="bf"/><path fill="#333" d="M115-3C79 11 28 4 28-45v-112H4v-33h27l15-45h31v45h36v33H77v99c-1 23 16 31 38 25v30" id="bg"/><g id="w"><use transform="matrix(0.07407407407407407,0,0,0.07407407407407407,0,0)" xlink:href="#bd"/><use transform="matrix(0.07407407407407407,0,0,0.07407407407407407,14.814814814814813,0)" xlink:href="#be"/><use transform="matrix(0.07407407407407407,0,0,0.07407407407407407,31.037037037037035,0)" xlink:href="#bf"/><use transform="matrix(0.07407407407407407,0,0,0.07407407407407407,47.259259259259245,0)" xlink:href="#bg"/><use transform="matrix(0.07407407407407407,0,0,0.07407407407407407,56.07407407407407,0)" xlink:href="#bb"/><use transform="matrix(0.07407407407407407,0,0,0.07407407407407407,70.88888888888889,0)" xlink:href="#bf"/><use transform="matrix(0.07407407407407407,0,0,0.07407407407407407,87.1111111111111,0)" xlink:href="#bg"/></g><path fill="#333" d="M88-194c31-1 46 15 58 34l-1-101h50l1 261h-48c-2-10 0-23-3-31C134-8 116 4 84 4 32 4 16-41 15-95c0-56 19-97 73-99zm17 164c33 0 40-30 41-66 1-37-9-64-41-64s-38 30-39 65c0 43 13 65 39 65" id="bh"/><path fill="#333" d="M135-194c53 0 70 44 70 98 0 56-19 98-73 100-31 1-45-17-59-34 3 33 2 69 2 105H25l-1-265h48c2 10 0 23 3 31 11-24 29-35 60-35zM114-30c33 0 39-31 40-66 0-38-9-64-40-64-56 0-55 130 0 130" id="bi"/><path fill="#333" d="M25 0v-261h50V0H25" id="bj"/><path fill="#333" d="M123 10C108 53 80 86 19 72V37c35 8 53-11 59-39L3-190h52l48 148c12-52 28-100 44-148h51" id="bk"/><g id="x"><use transform="matrix(0.07407407407407407,0,0,0.07407407407407407,0,0)" xlink:href="#bh"/><use transform="matrix(0.07407407407407407,0,0,0.07407407407407407,16.22222222222222,0)" xlink:href="#bb"/><use transform="matrix(0.07407407407407407,0,0,0.07407407407407407,31.037037037037035,0)" xlink:href="#bi"/><use transform="matrix(0.07407407407407407,0,0,0.07407407407407407,47.259259259259245,0)" xlink:href="#bj"/><use transform="matrix(0.07407407407407407,0,0,0.07407407407407407,54.66666666666666,0)" xlink:href="#be"/><use transform="matrix(0.07407407407407407,0,0,0.07407407407407407,70.88888888888889,0)" xlink:href="#bk"/></g><path fill="#333" d="M128 0H69L1-190h53L99-40l48-150h52" id="bl"/><g id="y"><use transform="matrix(0.07407407407407407,0,0,0.07407407407407407,0,0)" xlink:href="#aZ"/><use transform="matrix(0.07407407407407407,0,0,0.07407407407407407,7.4074074074074066,0)" xlink:href="#bf"/><use transform="matrix(0.07407407407407407,0,0,0.07407407407407407,23.629629629629623,0)" xlink:href="#bl"/><use transform="matrix(0.07407407407407407,0,0,0.07407407407407407,38.44444444444444,0)" xlink:href="#bc"/><use transform="matrix(0.07407407407407407,0,0,0.07407407407407407,53.25925925925926,0)" xlink:href="#bj"/><use transform="matrix(0.07407407407407407,0,0,0.07407407407407407,60.66666666666666,0)" xlink:href="#aZ"/><use transform="matrix(0.07407407407407407,0,0,0.07407407407407407,68.07407407407406,0)" xlink:href="#bh"/><use transform="matrix(0.07407407407407407,0,0,0.07407407407407407,84.29629629629628,0)" xlink:href="#bc"/><use transform="matrix(0.07407407407407407,0,0,0.07407407407407407,99.11111111111109,0)" xlink:href="#bg"/><use transform="matrix(0.07407407407407407,0,0,0.07407407407407407,107.92592592592591,0)" xlink:href="#bb"/></g><path fill="#333" d="M114-157C55-157 80-60 75 0H25v-261h50l-1 109c12-26 28-41 61-42 86-1 58 113 63 194h-50c-7-57 23-157-34-157" id="bm"/><g id="z"><use transform="matrix(0.07407407407407407,0,0,0.07407407407407407,0,0)" xlink:href="#bg"/><use transform="matrix(0.07407407407407407,0,0,0.07407407407407407,8.814814814814815,0)" xlink:href="#bm"/><use transform="matrix(0.07407407407407407,0,0,0.07407407407407407,25.037037037037038,0)" xlink:href="#bb"/></g><g id="A"><use transform="matrix(0.07407407407407407,0,0,0.07407407407407407,0,0)" xlink:href="#bd"/><use transform="matrix(0.07407407407407407,0,0,0.07407407407407407,14.814814814814813,0)" xlink:href="#bc"/><use transform="matrix(0.07407407407407407,0,0,0.07407407407407407,29.629629629629626,0)" xlink:href="#bd"/><use transform="matrix(0.07407407407407407,0,0,0.07407407407407407,44.44444444444444,0)" xlink:href="#bm"/><use transform="matrix(0.07407407407407407,0,0,0.07407407407407407,60.666666666666664,0)" xlink:href="#bb"/></g><path fill="#333" d="M144 0l-44-69L55 0H2l70-98-66-92h53l41 62 40-62h54l-67 91 71 99h-54" id="bn"/><path fill="#333" d="M220-157c-53 9-28 100-34 157h-49v-107c1-27-5-49-29-50C55-147 81-57 75 0H25l-1-190h47c2 12-1 28 3 38 10-53 101-56 108 0 13-22 24-43 59-42 82 1 51 116 57 194h-49v-107c-1-25-5-48-29-50" id="bo"/><path fill="#333" d="M24 0v-54h51V0H24" id="bp"/><path fill="#333" d="M110-251c83-7 118 89 53 130-17 10-36 21-38 46H78c2-56 65-53 71-103 2-21-15-35-38-34-25 1-41 14-44 38l-50-2c6-48 39-70 93-75zM77 0v-47h51V0H77" id="bq"/><g id="B"><use transform="matrix(0.07407407407407407,0,0,0.07407407407407407,0,0)" xlink:href="#bb"/><use transform="matrix(0.07407407407407407,0,0,0.07407407407407407,14.814814814814813,0)" xlink:href="#bn"/><use transform="matrix(0.07407407407407407,0,0,0.07407407407407407,29.629629629629626,0)" xlink:href="#bc"/><use transform="matrix(0.07407407407407407,0,0,0.07407407407407407,44.44444444444444,0)" xlink:href="#bo"/><use transform="matrix(0.07407407407407407,0,0,0.07407407407407407,68.14814814814815,0)" xlink:href="#bi"/><use transform="matrix(0.07407407407407407,0,0,0.07407407407407407,84.37037037037038,0)" xlink:href="#bj"/><use transform="matrix(0.07407407407407407,0,0,0.07407407407407407,91.77777777777779,0)" xlink:href="#bb"/><use transform="matrix(0.07407407407407407,0,0,0.07407407407407407,106.59259259259261,0)" xlink:href="#bp"/><use transform="matrix(0.07407407407407407,0,0,0.07407407407407407,114,0)" xlink:href="#bd"/><use transform="matrix(0.07407407407407407,0,0,0.07407407407407407,128.8148148148148,0)" xlink:href="#be"/><use transform="matrix(0.07407407407407407,0,0,0.07407407407407407,145.03703703703704,0)" xlink:href="#bo"/><use transform="matrix(0.07407407407407407,0,0,0.07407407407407407,168.74074074074073,0)" xlink:href="#bq"/></g><path fill="#333" d="M135-194c52 0 70 43 70 98 0 56-19 99-73 100-30 1-46-15-58-35L72 0H24l1-261h50v104c11-23 29-37 60-37zM114-30c31 0 40-27 40-66 0-37-7-63-39-63s-41 28-41 65c0 36 8 64 40 64" id="br"/><path fill="#333" d="M23 0v-37h61v-169l-59 37v-38l62-41h46v211h57V0H23" id="bs"/><path fill="#333" d="M182-182c0 78-84 86-111 141h115V0H12c-6-101 99-100 120-180 1-22-12-31-33-32-23 0-32 14-35 34l-49-3c5-45 32-70 84-70 51 0 83 22 83 69" id="bt"/><path fill="#333" d="M128-127c34 4 56 21 59 58 7 91-148 94-172 28-4-9-6-17-7-26l51-5c1 24 16 35 40 36 23 0 39-12 38-36-1-31-31-36-65-34v-40c32 2 59-3 59-33 0-20-13-33-34-33s-33 13-35 32l-50-3c6-44 37-68 86-68 50 0 83 20 83 66 0 35-22 52-53 58" id="bu"/><path fill="#333" d="M165-50V0h-47v-50H5v-38l105-160h55v161h33v37h-33zm-47-37l2-116L46-87h72" id="bv"/><path fill="#333" d="M85 4C-2 5 27-109 22-190h50c7 57-23 150 33 157 60-5 35-97 40-157h50l1 190h-47c-2-12 1-28-3-38-12 25-28 42-61 42" id="bw"/><path fill="#333" d="M121-226c-27-7-43 5-38 36h38v33H83V0H34v-157H6v-33h28c-9-59 32-81 87-68v32" id="bx"/><g id="C"><use transform="matrix(0.07407407407407407,0,0,0.07407407407407407,0,0)" xlink:href="#bc"/><use transform="matrix(0.07407407407407407,0,0,0.07407407407407407,14.814814814814813,0)" xlink:href="#br"/><use transform="matrix(0.07407407407407407,0,0,0.07407407407407407,31.037037037037035,0)" xlink:href="#bd"/><use transform="matrix(0.07407407407407407,0,0,0.07407407407407407,45.85185185185185,0)" xlink:href="#bh"/><use transform="matrix(0.07407407407407407,0,0,0.07407407407407407,62.07407407407407,0)" xlink:href="#bs"/><use transform="matrix(0.07407407407407407,0,0,0.07407407407407407,76.88888888888889,0)" xlink:href="#bt"/><use transform="matrix(0.07407407407407407,0,0,0.07407407407407407,91.7037037037037,0)" xlink:href="#bu"/><use transform="matrix(0.07407407407407407,0,0,0.07407407407407407,106.51851851851852,0)" xlink:href="#bv"/><use transform="matrix(0.07407407407407407,0,0,0.07407407407407407,121.33333333333331,0)" xlink:href="#bp"/><use transform="matrix(0.07407407407407407,0,0,0.07407407407407407,128.74074074074073,0)" xlink:href="#bd"/><use transform="matrix(0.07407407407407407,0,0,0.07407407407407407,143.55555555555554,0)" xlink:href="#bj"/><use transform="matrix(0.07407407407407407,0,0,0.07407407407407407,150.96296296296296,0)" xlink:href="#be"/><use transform="matrix(0.07407407407407407,0,0,0.07407407407407407,167.18518518518516,0)" xlink:href="#bw"/><use transform="matrix(0.07407407407407407,0,0,0.07407407407407407,183.40740740740742,0)" xlink:href="#bh"/><use transform="matrix(0.07407407407407407,0,0,0.07407407407407407,199.62962962962965,0)" xlink:href="#bx"/><use transform="matrix(0.07407407407407407,0,0,0.07407407407407407,208.44444444444446,0)" xlink:href="#aY"/><use transform="matrix(0.07407407407407407,0,0,0.07407407407407407,218.81481481481484,0)" xlink:href="#be"/><use transform="matrix(0.07407407407407407,0,0,0.07407407407407407,235.03703703703707,0)" xlink:href="#bf"/><use transform="matrix(0.07407407407407407,0,0,0.07407407407407407,251.25925925925927,0)" xlink:href="#bg"/><use transform="matrix(0.07407407407407407,0,0,0.07407407407407407,260.07407407407413,0)" xlink:href="#bp"/><use transform="matrix(0.07407407407407407,0,0,0.07407407407407407,267.4814814814815,0)" xlink:href="#bf"/><use transform="matrix(0.07407407407407407,0,0,0.07407407407407407,283.70370370370375,0)" xlink:href="#bb"/><use transform="matrix(0.07407407407407407,0,0,0.07407407407407407,298.5185185185186,0)" xlink:href="#bg"/></g><path fill="#333" d="M186 0v-106H76V0H24v-248h52v99h110v-99h50V0h-50" id="by"/><path fill="#333" d="M24-248c93 1 206-16 204 79-1 75-69 88-152 82V0H24v-248zm52 121c47 0 100 7 100-41 0-47-54-39-100-39v80" id="bz"/><g id="D"><use transform="matrix(0.07407407407407407,0,0,0.07407407407407407,0,0)" xlink:href="#by"/><use transform="matrix(0.07407407407407407,0,0,0.07407407407407407,19.185185185185183,0)" xlink:href="#aX"/><use transform="matrix(0.07407407407407407,0,0,0.07407407407407407,35.407407407407405,0)" xlink:href="#aX"/><use transform="matrix(0.07407407407407407,0,0,0.07407407407407407,51.629629629629626,0)" xlink:href="#bz"/></g><path fill="#333" d="M84 4C32 4 15-41 15-95c0-55 18-99 73-99 29 0 47 12 58 34l2-30h48l-1 265h-49V-32C136-9 114 4 84 4zm21-34c32 0 41-29 41-66 0-36-9-64-40-64-33 0-39 30-40 65 0 43 13 65 39 65" id="bA"/><path fill="#333" d="M137-138c1-29-70-34-71-4 15 46 118 7 119 86 1 83-164 76-172 9l43-7c4 19 20 25 44 25 33 8 57-30 24-41C81-84 22-81 20-136c-2-80 154-74 161-7" id="bB"/><g id="E"><use transform="matrix(0.07407407407407407,0,0,0.07407407407407407,0,0)" xlink:href="#aY"/><use transform="matrix(0.07407407407407407,0,0,0.07407407407407407,10.37037037037037,0)" xlink:href="#bb"/><use transform="matrix(0.07407407407407407,0,0,0.07407407407407407,25.185185185185183,0)" xlink:href="#bA"/><use transform="matrix(0.07407407407407407,0,0,0.07407407407407407,41.407407407407405,0)" xlink:href="#bw"/><use transform="matrix(0.07407407407407407,0,0,0.07407407407407407,57.629629629629626,0)" xlink:href="#bb"/><use transform="matrix(0.07407407407407407,0,0,0.07407407407407407,72.44444444444444,0)" xlink:href="#bB"/><use transform="matrix(0.07407407407407407,0,0,0.07407407407407407,87.25925925925925,0)" xlink:href="#bg"/><use transform="matrix(0.07407407407407407,0,0,0.07407407407407407,96.07407407407406,0)" xlink:href="#bB"/></g><path fill="#333" d="M67-125c0 53 21 87 73 88 37 1 54-22 65-47l45 17C233-25 199 4 140 4 58 4 20-42 15-125 8-235 124-281 211-232c18 10 29 29 36 50l-46 12c-8-25-30-41-62-41-52 0-71 34-72 86" id="bC"/><g id="F"><use transform="matrix(0.07407407407407407,0,0,0.07407407407407407,0,0)" xlink:href="#bC"/><use transform="matrix(0.07407407407407407,0,0,0.07407407407407407,19.185185185185183,0)" xlink:href="#bc"/><use transform="matrix(0.07407407407407407,0,0,0.07407407407407407,34,0)" xlink:href="#bd"/><use transform="matrix(0.07407407407407407,0,0,0.07407407407407407,48.81481481481481,0)" xlink:href="#bm"/><use transform="matrix(0.07407407407407407,0,0,0.07407407407407407,65.03703703703704,0)" xlink:href="#bb"/><use transform="matrix(0.07407407407407407,0,0,0.07407407407407407,79.85185185185185,0)" xlink:href="#bh"/></g><g id="G"><use transform="matrix(0.07407407407407407,0,0,0.07407407407407407,0,0)" xlink:href="#bd"/><use transform="matrix(0.07407407407407407,0,0,0.07407407407407407,14.814814814814813,0)" xlink:href="#be"/><use transform="matrix(0.07407407407407407,0,0,0.07407407407407407,31.037037037037035,0)" xlink:href="#bf"/><use transform="matrix(0.07407407407407407,0,0,0.07407407407407407,47.259259259259245,0)" xlink:href="#bg"/><use transform="matrix(0.07407407407407407,0,0,0.07407407407407407,56.07407407407407,0)" xlink:href="#bb"/><use transform="matrix(0.07407407407407407,0,0,0.07407407407407407,70.88888888888889,0)" xlink:href="#bf"/><use transform="matrix(0.07407407407407407,0,0,0.07407407407407407,87.1111111111111,0)" xlink:href="#bg"/></g><path fill="#333" d="M101-234c-31-9-42 10-38 44h38v23H63V0H32v-167H5v-23h27c-7-52 17-82 69-68v24" id="bD"/><g id="H"><use transform="matrix(0.06172839506172839,0,0,0.06172839506172839,0,0)" xlink:href="#aH"/><use transform="matrix(0.06172839506172839,0,0,0.06172839506172839,15.987654320987653,0)" xlink:href="#av"/><use transform="matrix(0.06172839506172839,0,0,0.06172839506172839,20.864197530864196,0)" xlink:href="#an"/><use transform="matrix(0.06172839506172839,0,0,0.06172839506172839,33.20987654320987,0)" xlink:href="#am"/><use transform="matrix(0.06172839506172839,0,0,0.06172839506172839,45.55555555555555,0)" xlink:href="#aq"/><use transform="matrix(0.06172839506172839,0,0,0.06172839506172839,57.90123456790123,0)" xlink:href="#bD"/><use transform="matrix(0.06172839506172839,0,0,0.06172839506172839,64.07407407407406,0)" xlink:href="#ah"/><use transform="matrix(0.06172839506172839,0,0,0.06172839506172839,71.41975308641975,0)" xlink:href="#an"/><use transform="matrix(0.06172839506172839,0,0,0.06172839506172839,83.76543209876543,0)" xlink:href="#ap"/><use transform="matrix(0.06172839506172839,0,0,0.06172839506172839,96.11111111111111,0)" xlink:href="#aj"/></g><g id="I"><use transform="matrix(0.06172839506172839,0,0,0.06172839506172839,0,0)" xlink:href="#aI"/><use transform="matrix(0.06172839506172839,0,0,0.06172839506172839,13.518518518518517,0)" xlink:href="#am"/><use transform="matrix(0.06172839506172839,0,0,0.06172839506172839,25.864197530864196,0)" xlink:href="#ap"/><use transform="matrix(0.06172839506172839,0,0,0.06172839506172839,38.20987654320987,0)" xlink:href="#aP"/><use transform="matrix(0.06172839506172839,0,0,0.06172839506172839,49.32098765432099,0)" xlink:href="#aj"/><use transform="matrix(0.06172839506172839,0,0,0.06172839506172839,55.49382716049383,0)" xlink:href="#ai"/><use transform="matrix(0.06172839506172839,0,0,0.06172839506172839,60.370370370370374,0)" xlink:href="#an"/><use transform="matrix(0.06172839506172839,0,0,0.06172839506172839,72.71604938271605,0)" xlink:href="#ap"/></g><path fill="#333" d="M76-208v77h127v40H76V0H24v-248h183v40H76" id="bE"/><g id="J"><use transform="matrix(0.04938271604938272,0,0,0.04938271604938272,0,0)" xlink:href="#bE"/><use transform="matrix(0.04938271604938272,0,0,0.04938271604938272,10.814814814814815,0)" xlink:href="#bb"/><use transform="matrix(0.04938271604938272,0,0,0.04938271604938272,20.69135802469136,0)" xlink:href="#bg"/><use transform="matrix(0.04938271604938272,0,0,0.04938271604938272,26.567901234567902,0)" xlink:href="#bd"/><use transform="matrix(0.04938271604938272,0,0,0.04938271604938272,36.44444444444445,0)" xlink:href="#bm"/></g><g id="K"><use transform="matrix(0.04938271604938272,0,0,0.04938271604938272,0,0)" xlink:href="#bx"/><use transform="matrix(0.04938271604938272,0,0,0.04938271604938272,5.8765432098765435,0)" xlink:href="#aZ"/><use transform="matrix(0.04938271604938272,0,0,0.04938271604938272,10.814814814814817,0)" xlink:href="#bj"/><use transform="matrix(0.04938271604938272,0,0,0.04938271604938272,15.753086419753087,0)" xlink:href="#bb"/><use transform="matrix(0.04938271604938272,0,0,0.04938271604938272,25.629629629629633,0)" xlink:href="#bB"/></g><g id="L"><use transform="matrix(0.04938271604938272,0,0,0.04938271604938272,0,0)" xlink:href="#bx"/><use transform="matrix(0.04938271604938272,0,0,0.04938271604938272,5.8765432098765435,0)" xlink:href="#aY"/><use transform="matrix(0.04938271604938272,0,0,0.04938271604938272,12.790123456790125,0)" xlink:href="#be"/><use transform="matrix(0.04938271604938272,0,0,0.04938271604938272,23.604938271604937,0)" xlink:href="#bo"/></g><path fill="#333" d="M169-182c-1-43-94-46-97-3 18 66 151 10 154 114 3 95-165 93-204 36-6-8-10-19-12-30l50-8c3 46 112 56 116 5-17-69-150-10-154-114-4-87 153-88 188-35 5 8 8 18 10 28" id="bF"/><g id="M"><use transform="matrix(0.04938271604938272,0,0,0.04938271604938272,0,0)" xlink:href="#bF"/><use transform="matrix(0.04938271604938272,0,0,0.04938271604938272,11.851851851851853,0)" xlink:href="#bu"/></g><g id="N"><use transform="matrix(0.06172839506172839,0,0,0.06172839506172839,0,0)" xlink:href="#aI"/><use transform="matrix(0.06172839506172839,0,0,0.06172839506172839,13.518518518518517,0)" xlink:href="#aF"/><use transform="matrix(0.06172839506172839,0,0,0.06172839506172839,25.864197530864196,0)" xlink:href="#ai"/><use transform="matrix(0.06172839506172839,0,0,0.06172839506172839,30.74074074074074,0)" xlink:href="#av"/><use transform="matrix(0.06172839506172839,0,0,0.06172839506172839,35.617283950617285,0)" xlink:href="#an"/><use transform="matrix(0.06172839506172839,0,0,0.06172839506172839,47.96296296296296,0)" xlink:href="#aV"/><use transform="matrix(0.06172839506172839,0,0,0.06172839506172839,59.074074074074076,0)" xlink:href="#af"/><use transform="matrix(0.06172839506172839,0,0,0.06172839506172839,71.41975308641976,0)" xlink:href="#ah"/></g><path fill="#333" d="M67-125c0 54 23 88 75 88 28 0 53-7 68-21v-34h-60v-39h108v91C232-14 192 4 140 4 58 4 20-42 15-125 8-236 126-280 215-234c19 10 29 26 37 47l-47 15c-11-23-29-39-63-39-53 1-75 33-75 86" id="bG"/><g id="O"><use transform="matrix(0.07407407407407407,0,0,0.07407407407407407,0,0)" xlink:href="#bG"/><use transform="matrix(0.07407407407407407,0,0,0.07407407407407407,20.74074074074074,0)" xlink:href="#bb"/><use transform="matrix(0.07407407407407407,0,0,0.07407407407407407,35.55555555555556,0)" xlink:href="#bf"/><use transform="matrix(0.07407407407407407,0,0,0.07407407407407407,51.77777777777777,0)" xlink:href="#bb"/><use transform="matrix(0.07407407407407407,0,0,0.07407407407407407,66.5925925925926,0)" xlink:href="#aY"/><use transform="matrix(0.07407407407407407,0,0,0.07407407407407407,76.96296296296296,0)" xlink:href="#bc"/><use transform="matrix(0.07407407407407407,0,0,0.07407407407407407,91.77777777777777,0)" xlink:href="#bg"/><use transform="matrix(0.07407407407407407,0,0,0.07407407407407407,100.59259259259258,0)" xlink:href="#bb"/></g><path fill="#333" d="M231 0h-52l-39-155L100 0H48L-1-190h46L77-45c9-52 24-97 36-145h53l37 145 32-145h46" id="bH"/><g id="P"><use transform="matrix(0.07407407407407407,0,0,0.07407407407407407,0,0)" xlink:href="#bH"/><use transform="matrix(0.07407407407407407,0,0,0.07407407407407407,20.74074074074074,0)" xlink:href="#bb"/><use transform="matrix(0.07407407407407407,0,0,0.07407407407407407,35.55555555555556,0)" xlink:href="#br"/><use transform="matrix(0.07407407407407407,0,0,0.07407407407407407,51.77777777777777,0)" xlink:href="#bB"/><use transform="matrix(0.07407407407407407,0,0,0.07407407407407407,66.5925925925926,0)" xlink:href="#aZ"/><use transform="matrix(0.07407407407407407,0,0,0.07407407407407407,74,0)" xlink:href="#bg"/><use transform="matrix(0.07407407407407407,0,0,0.07407407407407407,82.81481481481481,0)" xlink:href="#bb"/></g><g id="Q"><use transform="matrix(0.07407407407407407,0,0,0.07407407407407407,0,0)" xlink:href="#bx"/><use transform="matrix(0.07407407407407407,0,0,0.07407407407407407,8.814814814814815,0)" xlink:href="#aZ"/><use transform="matrix(0.07407407407407407,0,0,0.07407407407407407,16.22222222222222,0)" xlink:href="#bj"/><use transform="matrix(0.07407407407407407,0,0,0.07407407407407407,23.629629629629623,0)" xlink:href="#bb"/><use transform="matrix(0.07407407407407407,0,0,0.07407407407407407,38.44444444444444,0)" xlink:href="#bB"/></g><path fill="#333" d="M168-19C124 19 11 11 16-68c3-43 29-60 59-75-25-44-12-111 53-106 37 3 64 15 64 52 0 43-40 52-69 68 12 22 27 41 43 59 14-19 21-38 28-64l37 13c-8 29-19 52-34 74 12 10 32 16 52 10v35c-28 11-65-2-81-17zm-58-139c19-9 43-14 43-39 0-14-10-22-25-22-34 0-33 41-18 61zM60-68c-3 40 55 47 79 25-18-20-34-42-48-67-18 8-30 20-31 42" id="bI"/><use transform="matrix(0.07407407407407407,0,0,0.07407407407407407,0,0)" xlink:href="#bI" id="R"/><g id="S"><use transform="matrix(0.07407407407407407,0,0,0.07407407407407407,0,0)" xlink:href="#bw"/><use transform="matrix(0.07407407407407407,0,0,0.07407407407407407,16.22222222222222,0)" xlink:href="#bi"/><use transform="matrix(0.07407407407407407,0,0,0.07407407407407407,32.44444444444444,0)" xlink:href="#bj"/><use transform="matrix(0.07407407407407407,0,0,0.07407407407407407,39.85185185185185,0)" xlink:href="#be"/><use transform="matrix(0.07407407407407407,0,0,0.07407407407407407,56.07407407407407,0)" xlink:href="#bc"/><use transform="matrix(0.07407407407407407,0,0,0.07407407407407407,70.88888888888889,0)" xlink:href="#bh"/></g><g id="T"><use transform="matrix(0.07407407407407407,0,0,0.07407407407407407,0,0)" xlink:href="#bg"/><use transform="matrix(0.07407407407407407,0,0,0.07407407407407407,8.814814814814815,0)" xlink:href="#be"/></g><g id="U"><use transform="matrix(0.07407407407407407,0,0,0.07407407407407407,0,0)" xlink:href="#bF"/><use transform="matrix(0.07407407407407407,0,0,0.07407407407407407,17.77777777777778,0)" xlink:href="#bu"/></g></defs></g></svg>