<svg xmlns="http://www.w3.org/2000/svg" xmlns:xlink="http://www.w3.org/1999/xlink" xmlns:lucid="lucid" width="1139.6" height="242.33"><g transform="translate(-386.641975308642 -360)" lucid:page-tab-id="0_0"><path d="M0 0h1760v1360H0z" fill="#fff"/><path d="M980 380h120v120H980V380z" stroke="#fff" stroke-opacity="0" stroke-width="2" fill="#d6242d"/><path d="M1027.2 452.34h-11.42c-8.4 0-15.28-6.1-15.76-13.85v-1.07c-.24-6.6 4-12.34 10.4-14.05v-1.16c.24-8.26 4.96-15.16 12.56-18.43 8.23-3.53 17.2-1.82 23.6 4.42 2.07 2.07 3.6 4.08 4.8 6.75 1.75-1.36 3.67-2 5.9-2 4.5 0 9.2 3.1 10.08 10 8.16 1.97 12.64 7.1 12.64 14.6 0 8.02-4.4 13.3-12 14.56l-.48-3.17c4.24-.7 9.28-3.22 9.28-11.38 0-6.3-3.76-10.22-11.2-11.68-.72-.1-1.28-.7-1.28-1.46-.4-6.1-4-8.26-7.03-8.26-2.1 0-3.93.9-5.2 2.57-.33.5-.9.7-1.53.6-.56-.05-1.04-.45-1.28-1-1.05-3.08-2.57-5.5-4.97-7.76-5.44-5.35-13.12-6.8-20.23-3.84-6.32 2.82-10.16 8.56-10.48 15.46 0 .76 0 1.36.08 2.12v.15c0 .8-.56 1.5-1.36 1.6-3.44.9-9.2 3.52-9.2 11.33v.8c.4 6.1 5.92 10.88 12.56 10.88h11.5z" stroke="#fff" stroke-opacity="0" stroke-width="2" fill="#fff"/><path d="M1078.4 477.94h-4.72c-.4 0-.8-.15-1.1-.45l-2.82-2.8h-7.35c-.88 0-1.58-.68-1.58-1.57V469l-2.28-2.27h-4.12c-.9 0-1.64-.7-1.64-1.6v-4.35l-.6-.94c-1.83.64-3.52.94-5.5.94-9 0-16.28-7.24-16.28-16.2 0-5.77 2.68-10.67 7.54-13.75.4-.3.84-.54 1.3-.8.44-.24 1.03-.44 1.53-.7.84-.28 1.54-.48 2.43-.68.45-.1.85-.15 1.3-.2H1045.67c.35-.05.65-.1 1-.1 8.93 0 16.18 7.24 16.28 16.17.05 2.03-.25 3.72-1 5.6l17.63 17.6c.28.35.43.7.43 1.14v7.54c-.05.84-.74 1.54-1.64 1.54zm-4.03-3.23h2.44v-5.2l-17.86-17.84c-.5-.5-.6-1.14-.35-1.74.83-1.78 1.18-3.42 1.13-5.35 0-7.24-5.86-13.1-13.05-13.1h-1.74c-.35 0-.65.06-1 .15-.7.15-1.28.3-1.98.55-.35.15-.8.35-1.2.55-.44.24-.74.4-1.08.64-5.6 3.52-7.7 10.6-4.87 16.6 3.1 6.56 10.88 9.33 17.4 6.26.73-.35 1.57-.1 2.02.6l1.6 2.52c.2.25.24.5.24.85v3.16h3.22c.45 0 .8.15 1.1.5l3.22 3.17c.3.34.45.7.45 1.14v3.22h6.4c.45 0 .8.14 1.14.44zm-30.42-27.16c-1.64 0-3.03-.6-4.17-1.78-2.3-2.28-2.3-6.05 0-8.33 2.33-2.33 6.05-2.33 8.4 0 1.13 1.14 1.72 2.52 1.72 4.16 0 3.26-2.63 5.9-5.9 5.94zm0-8.43c-.75 0-1.4.26-1.9.8-.54.55-.78 1.2-.78 1.94s.24 1.4.8 1.88c0 .05.04.05.04.1 1.05 1 2.74 1 3.78-.1.55-.5.8-1.14.8-1.88s-.25-1.4-.8-1.93c-.54-.5-1.24-.74-1.98-.7z" stroke="#fff" stroke-opacity="0" stroke-width="2" fill="#fff"/><use xlink:href="#a" transform="matrix(1,0,0,1,950,509) translate(31.234567901234577 17.77777777777778)"/><use xlink:href="#b" transform="matrix(1,0,0,1,950,509) translate(87.1604938271605 17.77777777777778)"/><use xlink:href="#c" transform="matrix(1,0,0,1,950,509) translate(49.320987654320994 44.44444444444444)"/><path d="M755.66 425.84L735.8 444.2c.83 1.56 1.43 3.24 1.43 4.8 0 .84 0 1.8-.36 2.64l20.58 12.48v-36c-.36.12-1.55-2.04-1.8-2.28zM765.83 425.6c-.24.24-3.6 2.64-3.83 2.88v35.64l20.47-13.08c-.24-.84-.6-1.44-.6-2.04 0-1.2.36-2.4.6-3.6l-16.64-19.8z" stroke="#000" stroke-opacity="0" fill="#0078d7"/><path d="M759.97 380L700 451.28 759.73 500l59.96-48.36L759.96 380zm31.84 78.72c-2.63 0-5.14-1.2-6.82-3l-16.4 11.64c1.2 1.44 1.56 3.24 1.56 5.4 0 5.4-4.55 9.48-9.57 9.48-5.4 0-9.46-4.08-9.46-9.48 0-2.4.85-4.44 2.28-6.24l-18.9-10.08c-1.8 1.8-4.2 2.64-6.6 2.64-5.38 0-9.57-4.08-9.57-9.48s4.56-9.48 9.6-9.48c1.43 0 2.98.24 4.42 1.08l19.87-18.36c-1.45-1.8-2.05-4.2-2.05-6.24 0-5.88 4.67-10.44 10.65-10.44 6 0 10.66 4.8 10.66 10.44 0 2.04-.6 3.84-1.8 5.64l17 19.92c1.44-1.2 3.6-1.8 5.62-1.8 5.4 0 9.46 4.08 9.46 9.48-.48 4.44-4.9 8.88-9.93 8.88z" stroke="#000" stroke-opacity="0" fill="#0078d7"/><use xlink:href="#d" transform="matrix(1,0,0,1,670,509) translate(1.1499999999999915 14.4)"/><use xlink:href="#e" transform="matrix(1,0,0,1,670,509) translate(53.099999999999994 14.4)"/><use xlink:href="#f" transform="matrix(1,0,0,1,670,509) translate(107.05 14.4)"/><path d="M498.32 480h-76.64c-.88 0-1.68-.76-1.68-1.7v-5.12c0-18.18 11.92-33.43 29.52-37.7.48-.1.88-.05 1.28.17 5.92 3.2 12.48 3.2 18.4 0 .4-.22.8-.26 1.2-.17 17.68 4.27 29.6 19.52 29.6 37.7v5.13c0 .94-.8 1.7-1.68 1.7zm-74.88-3.43h73.12v-3.4c.08-16.35-10.56-30.07-26.32-34.17-3.36 1.65-6.48 2.4-10.24 2.4s-6.88-.7-10.24-2.4c-15.76 4.1-26.4 17.82-26.32 34.18z" stroke="#fff" stroke-opacity="0" fill="#232f3e"/><path d="M460 441.3c-3.67 0-6.8-.78-10.03-2.56-9.95-5.58-13.5-18.2-7.93-28.17 5.58-9.95 18.17-13.5 28.1-7.93 6.72 3.76 10.56 10.33 10.56 18.05 0 7.76-3.93 14.36-10.74 18.04-3.22 1.73-6.32 2.56-9.95 2.56zm0-37.83c-6.6-.17-12.26 3.18-15.44 8.96-4.5 8.4-1.4 18.8 6.94 23.34 5.4 2.93 11.36 2.93 16.77 0 5.7-3.1 9-8.68 8.96-15.2-.04-9.5-7.76-17.14-17.22-17.1z" stroke="#fff" stroke-opacity="0" fill="#232f3e"/><use xlink:href="#a" transform="matrix(1,0,0,1,390,489) translate(18.64197530864198 17.77777777777778)"/><use xlink:href="#g" transform="matrix(1,0,0,1,390,489) translate(74.5679012345679 17.77777777777778)"/><path d="M1380 380h120v120h-120V380z" stroke="#fff" stroke-opacity="0" fill="#cc2264"/><path d="M1478.4 478.4h-11.2v-3.23h9.6v-57.6h-73.6v57.6h44.8v3.23h-46.4c-.88 0-1.6-.7-1.6-1.6v-73.6c0-.9.72-1.6 1.6-1.6h76.8c.88 0 1.6.7 1.6 1.6v73.6c0 .9-.72 1.6-1.6 1.6zm-75.2-63.97h73.6v-9.6h-73.6zm41.12 55.83h-8.64c-.88 0-1.6-.7-1.6-1.6v-1.4c-1.52-.46-2.72-1-4.16-1.76l-.96 1c-.64.6-1.68.6-2.32 0l-6-6c-.32-.3-.48-.7-.48-1.15 0-.46.16-.84.48-1.15l.96-1c-.72-1.38-1.28-2.68-1.68-4.14h-1.52c-.88 0-1.6-.77-1.6-1.62v-8.6c0-.84.72-1.6 1.6-1.6h1.44c.48-1.47.96-2.78 1.76-4.16l-.96-1.07c-.64-.6-.64-1.6 0-2.22l6-6.07c.32-.3.72-.45 1.12-.45.48 0 .88.15 1.2.46l.96 1c1.44-.76 2.64-1.3 4.16-1.76v-1.38c0-.92.72-1.6 1.6-1.6h8.64c.88 0 1.6.68 1.6 1.6v1.46c1.52.38 2.72.92 4.16 1.7l.96-1c.32-.32.72-.47 1.2-.47.4 0 .8.15 1.12.46l6 6.08c.64.6.64 1.6 0 2.23l-.96 1c.72 1.4 1.28 2.7 1.68 4.23h1.52c.88 0 1.6.7 1.6 1.53v8.6c0 .85-.72 1.62-1.6 1.62h-1.44c-.48 1.54-.96 2.84-1.76 4.22l1.04 1c.64.62.64 1.6 0 2.3l-6.08 6c-.64.6-1.6.6-2.24 0l-1.04-1c-1.36.77-2.64 1.3-4.16 1.76v1.4c0 .9-.72 1.6-1.6 1.6zm-7.04-3.15h5.44v-1.06c-.08-.77.48-1.46 1.2-1.62 2.08-.46 3.76-1.15 5.52-2.3.64-.4 1.52-.3 2 .23l.8.77 3.76-3.84-.8-.7c-.56-.53-.64-1.38-.24-2 1.12-1.76 1.84-3.45 2.32-5.52.16-.77.8-1.23 1.6-1.23h1.12v-5.38h-1.04c-.8 0-1.44-.46-1.6-1.22-.48-2.08-1.2-3.77-2.32-5.53-.4-.62-.32-1.46.16-2l.8-.77-3.76-3.76-.8.84c-.56.55-1.36.63-2 .17-1.76-1.16-3.44-1.85-5.44-2.3-.72-.16-1.28-.85-1.2-1.62v-1.08h-5.52V428.33c.08.76-.48 1.38-1.2 1.53-2.08.46-3.76 1.23-5.52 2.3-.64.4-1.44.3-2-.22l-.8-.77-3.76 3.76.8.77c.48.54.64 1.38.16 2-1.12 1.76-1.76 3.45-2.24 5.53-.16.76-.88 1.22-1.6 1.22H1420v5.38h1.04c.8 0 1.44.46 1.6 1.23.48 2.07 1.2 3.76 2.32 5.53.4.6.32 1.45-.16 2l-.8.75 3.76 3.84.8-.77c.56-.54 1.36-.62 2-.23 1.76 1.15 3.44 1.76 5.44 2.22.72.23 1.28.85 1.28 1.62zm2.72-11.36c-4.72 0-8.64-3.84-8.64-8.6s3.92-8.6 8.64-8.6c4.72 0 8.64 3.84 8.64 8.6v.08c-.08 4.68-3.92 8.52-8.64 8.52zm0-13.97c-2.96 0-5.36 2.38-5.44 5.3 0 3 2.4 5.45 5.36 5.53 3.04 0 5.44-2.4 5.52-5.38v-.08c0-3-2.48-5.37-5.44-5.37zm-17.6-30.57h-3.2v-3.23h3.2zm-6.4 0h-3.2v-3.23h3.2zm-6.4 0h-3.2v-3.23h3.2z" stroke="#fff" stroke-opacity="0" fill="#fff"/><use xlink:href="#h" transform="matrix(1,0,0,1,1350,509) translate(65.12345679012347 17.77777777777778)"/><use xlink:href="#i" transform="matrix(1,0,0,1,1350,509) translate(25.24691358024691 44.44444444444444)"/><use xlink:href="#j" transform="matrix(1,0,0,1,1350,509) translate(49.32098765432098 71.11111111111111)"/><path d="M1274.65 502.63l-19.6-11.32v-22.6l19.6-11.33 19.6 11.32v22.6zm-16-13.4l16 9.23 16-9.23v-18.46l-16-9.23-16 9.23z" stroke="#fff" stroke-opacity="0" fill="#232f3e"/><path d="M1274.65 520L1240 500v-40l34.65-20 34.65 20v40zm-31.05-22.08l31.05 17.92 31.05-17.92v-35.84l-31.05-17.92-31.05 17.92z" stroke="#fff" stroke-opacity="0" fill="#232f3e"/><path d="M1273.74 478.44l32.84-18.95 1.8 3.12-32.84 18.95-1.8-3.13z" stroke="#fff" stroke-opacity="0" stroke-width=".87" fill="#232f3e"/><path d="M1240.98 462.5l1.8-3.15 33 18.96-1.82 3.15-32.98-18.96z" stroke="#fff" stroke-opacity="0" stroke-width=".5" fill="#232f3e"/><path d="M1272.84 480h3.62v37.92h-3.62V480z" stroke="#fff" stroke-opacity="0" fill="#232f3e"/><use xlink:href="#a" transform="matrix(1,0,0,1,1210,529) translate(13.580246913580254 17.77777777777778)"/><use xlink:href="#k" transform="matrix(1,0,0,1,1210,529) translate(69.50617283950618 17.77777777777778)"/><path d="M482.48 438.34l1.08-1.6 2.13-2.9 2.06-2.58 2.02-2.3 1.98-2.1 1.95-1.9 1.94-1.7 1.9-1.57 1.92-1.44 1.9-1.3 1.92-1.2 1.93-1.1 1.96-1 2-.94 2.03-.84 2.07-.76 2.16-.68 2.23-.6 2.32-.54 2.44-.45 2.57-.37 2.72-.27 2.93-.15 3.17-.05 3.45.1 3.82.26 4.28.48 4.92.76 5.8 1.14 7.18 1.74 9.62 2.76 16.72 5.6 52.08 18.35 12.55 3.58 9.97 2.4 8.52 1.7 4.76.73" stroke="#5e5e5e" stroke-width="4" fill="none"/><path d="M484.17 439.4l-1.12 1.68-2.83-1.8-.6-.3 1.23-1.8" fill="#5e5e5e"/><path d="M693.7 450.9l-14.6 3.48.73-9.24z" stroke="#5e5e5e" stroke-width="4" fill="#5e5e5e"/><use xlink:href="#l" transform="matrix(1,0,0,1,559.5280745681122,393.06804358487454) translate(0 14.222222222222223)"/><path d="M821.7 451.64h135.56" stroke="#5e5e5e" stroke-width="4" fill="none"/><path d="M821.75 453.64h-4.54l2.5-2-1.67-2h3.72" fill="#5e5e5e"/><path d="M973.53 451.64l-14.27 4.64V447z" stroke="#5e5e5e" stroke-width="4" fill="#5e5e5e"/><g><use xlink:href="#m" transform="matrix(1,0,0,1,862.8855672678187,426.3066665532563) translate(0 14.222222222222223)"/></g><path d="M1102 439.96l5.62-.12 7.43-.47 7.3-.76 7.26-1.06 7.3-1.4 7.4-1.74 7.72-2.15 8.27-2.7 9.4-3.5 12.73-5.37 31.83-14.3 5.3-1.96 4.05-1.32 3.38-.94 2.9-.7 2.62-.5 2.4-.34 2.2-.23 2.08-.15 1.97-.04 1.97.05 2.06.13 2.17.23 2.32.36 2.5.48 2.8.65 3.15.87 3.74 1.22 4.73 1.76 7.05 2.98 39.28 17.84 8.62 3.2 7.76 2.54 7.34 2.05 7.12 1.67 7.05 1.34 6.52.96" stroke="#5e5e5e" stroke-width="4" fill="none"/><path d="M1102.1 441.96l-2.1.04v-4l2-.04" fill="#5e5e5e"/><path d="M1373.54 439.6l-14.53 3.7.6-9.25z" stroke="#5e5e5e" stroke-width="4" fill="#5e5e5e"/><path d="M1102 440.04l5.18.1 6.32.4 5.65.6 5.15.75 4.76.9 4.48 1.05 4.3 1.2 4.2 1.37 4.25 1.58 4.44 1.87 5.02 2.37 6.9 3.62 21.58 11.9 5.02 2.37 4.45 1.87 4.25 1.58 4.2 1.37 4.3 1.2 4.5 1.05 4.75.9 1.64.25" stroke="#5e5e5e" stroke-width="4" fill="none"/><path d="M1102.1 438.04l-.1 4-2-.04v-4" fill="#5e5e5e"/><path d="M1233.54 479.53l-14.56 3.6.67-9.26z" stroke="#5e5e5e" stroke-width="4" fill="#5e5e5e"/><defs><path fill="#333" d="M205 0l-28-72H64L36 0H1l101-248h38L239 0h-34zm-38-99l-47-123c-12 45-31 82-46 123h93" id="n"/><path fill="#333" d="M266 0h-40l-56-210L115 0H75L2-248h35L96-30l15-64 43-154h32l59 218 59-218h35" id="o"/><path fill="#333" d="M185-189c-5-48-123-54-124 2 14 75 158 14 163 119 3 78-121 87-175 55-17-10-28-26-33-46l33-7c5 56 141 63 141-1 0-78-155-14-162-118-5-82 145-84 179-34 5 7 8 16 11 25" id="p"/><g id="a"><use transform="matrix(0.06172839506172839,0,0,0.06172839506172839,0,0)" xlink:href="#n"/><use transform="matrix(0.06172839506172839,0,0,0.06172839506172839,14.012345679012345,0)" xlink:href="#o"/><use transform="matrix(0.06172839506172839,0,0,0.06172839506172839,34.938271604938265,0)" xlink:href="#p"/></g><path fill="#333" d="M24-231v-30h32v30H24zM24 0v-190h32V0H24" id="q"/><path fill="#333" d="M117-194c89-4 53 116 60 194h-32v-121c0-31-8-49-39-48C34-167 62-67 57 0H25l-1-190h30c1 10-1 24 2 32 11-22 29-35 61-36" id="r"/><path fill="#333" d="M177-190C167-65 218 103 67 71c-23-6-38-20-44-43l32-5c15 47 100 32 89-28v-30C133-14 115 1 83 1 29 1 15-40 15-95c0-56 16-97 71-98 29-1 48 16 59 35 1-10 0-23 2-32h30zM94-22c36 0 50-32 50-73 0-42-14-75-50-75-39 0-46 34-46 75s6 73 46 73" id="s"/><path fill="#333" d="M24 0v-261h32V0H24" id="t"/><path fill="#333" d="M100-194c63 0 86 42 84 106H49c0 40 14 67 53 68 26 1 43-12 49-29l28 8c-11 28-37 45-77 45C44 4 14-33 15-96c1-61 26-98 85-98zm52 81c6-60-76-77-97-28-3 7-6 17-6 28h103" id="u"/><g id="b"><use transform="matrix(0.06172839506172839,0,0,0.06172839506172839,0,0)" xlink:href="#p"/><use transform="matrix(0.06172839506172839,0,0,0.06172839506172839,14.814814814814813,0)" xlink:href="#q"/><use transform="matrix(0.06172839506172839,0,0,0.06172839506172839,19.691358024691354,0)" xlink:href="#r"/><use transform="matrix(0.06172839506172839,0,0,0.06172839506172839,32.03703703703703,0)" xlink:href="#s"/><use transform="matrix(0.06172839506172839,0,0,0.06172839506172839,44.38271604938271,0)" xlink:href="#t"/><use transform="matrix(0.06172839506172839,0,0,0.06172839506172839,49.25925925925925,0)" xlink:href="#u"/></g><path fill="#333" d="M16-82v-28h88v28H16" id="v"/><path fill="#333" d="M140-251c81 0 123 46 123 126C263-46 219 4 140 4 59 4 17-45 17-125s42-126 123-126zm0 227c63 0 89-41 89-101s-29-99-89-99c-61 0-89 39-89 99S79-25 140-24" id="w"/><g id="c"><use transform="matrix(0.06172839506172839,0,0,0.06172839506172839,0,0)" xlink:href="#p"/><use transform="matrix(0.06172839506172839,0,0,0.06172839506172839,14.814814814814813,0)" xlink:href="#q"/><use transform="matrix(0.06172839506172839,0,0,0.06172839506172839,19.691358024691354,0)" xlink:href="#s"/><use transform="matrix(0.06172839506172839,0,0,0.06172839506172839,32.03703703703703,0)" xlink:href="#r"/><use transform="matrix(0.06172839506172839,0,0,0.06172839506172839,44.38271604938271,0)" xlink:href="#v"/><use transform="matrix(0.06172839506172839,0,0,0.06172839506172839,51.728395061728385,0)" xlink:href="#w"/><use transform="matrix(0.06172839506172839,0,0,0.06172839506172839,69.01234567901233,0)" xlink:href="#r"/></g><path d="M205 0l-28-72H64L36 0H1l101-248h38L239 0h-34zm-38-99l-47-123c-12 45-31 82-46 123h93" id="x"/><path d="M9 0v-24l116-142H16v-24h144v24L44-24h123V0H9" id="y"/><path d="M84 4C-5 8 30-112 23-190h32v120c0 31 7 50 39 49 72-2 45-101 50-169h31l1 190h-30c-1-10 1-25-2-33-11 22-28 36-60 37" id="z"/><path d="M114-163C36-179 61-72 57 0H25l-1-190h30c1 12-1 29 2 39 6-27 23-49 58-41v29" id="A"/><path d="M100-194c63 0 86 42 84 106H49c0 40 14 67 53 68 26 1 43-12 49-29l28 8c-11 28-37 45-77 45C44 4 14-33 15-96c1-61 26-98 85-98zm52 81c6-60-76-77-97-28-3 7-6 17-6 28h103" id="B"/><g id="d"><use transform="matrix(0.05,0,0,0.05,0,0)" xlink:href="#x"/><use transform="matrix(0.05,0,0,0.05,12,0)" xlink:href="#y"/><use transform="matrix(0.05,0,0,0.05,21,0)" xlink:href="#z"/><use transform="matrix(0.05,0,0,0.05,31,0)" xlink:href="#A"/><use transform="matrix(0.05,0,0,0.05,36.95,0)" xlink:href="#B"/></g><path d="M96-169c-40 0-48 33-48 73s9 75 48 75c24 0 41-14 43-38l32 2c-6 37-31 61-74 61-59 0-76-41-82-99-10-93 101-131 147-64 4 7 5 14 7 22l-32 3c-4-21-16-35-41-35" id="C"/><path d="M59-47c-2 24 18 29 38 22v24C64 9 27 4 27-40v-127H5v-23h24l9-43h21v43h35v23H59v120" id="D"/><path d="M24-231v-30h32v30H24zM24 0v-190h32V0H24" id="E"/><path d="M108 0H70L1-190h34L89-25l56-165h34" id="F"/><g id="e"><use transform="matrix(0.05,0,0,0.05,0,0)" xlink:href="#x"/><use transform="matrix(0.05,0,0,0.05,12,0)" xlink:href="#C"/><use transform="matrix(0.05,0,0,0.05,21,0)" xlink:href="#D"/><use transform="matrix(0.05,0,0,0.05,26,0)" xlink:href="#E"/><use transform="matrix(0.05,0,0,0.05,29.950000000000003,0)" xlink:href="#F"/><use transform="matrix(0.05,0,0,0.05,38.95,0)" xlink:href="#B"/></g><path d="M30-248c118-7 216 8 213 122C240-48 200 0 122 0H30v-248zM63-27c89 8 146-16 146-99s-60-101-146-95v194" id="G"/><path d="M100-194c62-1 85 37 85 99 1 63-27 99-86 99S16-35 15-95c0-66 28-99 85-99zM99-20c44 1 53-31 53-75 0-43-8-75-51-75s-53 32-53 75 10 74 51 75" id="H"/><path d="M179-190L93 31C79 59 56 82 12 73V49c39 6 53-20 64-50L1-190h34L92-34l54-156h33" id="I"/><g id="f"><use transform="matrix(0.05,0,0,0.05,0,0)" xlink:href="#G"/><use transform="matrix(0.05,0,0,0.05,12.950000000000001,0)" xlink:href="#E"/><use transform="matrix(0.05,0,0,0.05,16.900000000000002,0)" xlink:href="#A"/><use transform="matrix(0.05,0,0,0.05,22.85,0)" xlink:href="#B"/><use transform="matrix(0.05,0,0,0.05,32.85,0)" xlink:href="#C"/><use transform="matrix(0.05,0,0,0.05,41.85,0)" xlink:href="#D"/><use transform="matrix(0.05,0,0,0.05,46.85,0)" xlink:href="#H"/><use transform="matrix(0.05,0,0,0.05,56.85,0)" xlink:href="#A"/><use transform="matrix(0.05,0,0,0.05,62.800000000000004,0)" xlink:href="#I"/></g><path fill="#333" d="M232-93c-1 65-40 97-104 97C67 4 28-28 28-90v-158h33c8 89-33 224 67 224 102 0 64-133 71-224h33v155" id="J"/><path fill="#333" d="M135-143c-3-34-86-38-87 0 15 53 115 12 119 90S17 21 10-45l28-5c4 36 97 45 98 0-10-56-113-15-118-90-4-57 82-63 122-42 12 7 21 19 24 35" id="K"/><path fill="#333" d="M114-163C36-179 61-72 57 0H25l-1-190h30c1 12-1 29 2 39 6-27 23-49 58-41v29" id="L"/><g id="g"><use transform="matrix(0.06172839506172839,0,0,0.06172839506172839,0,0)" xlink:href="#J"/><use transform="matrix(0.06172839506172839,0,0,0.06172839506172839,15.987654320987653,0)" xlink:href="#K"/><use transform="matrix(0.06172839506172839,0,0,0.06172839506172839,27.098765432098766,0)" xlink:href="#u"/><use transform="matrix(0.06172839506172839,0,0,0.06172839506172839,39.44444444444444,0)" xlink:href="#L"/></g><g id="h"><use transform="matrix(0.06172839506172839,0,0,0.06172839506172839,0,0)" xlink:href="#n"/><use transform="matrix(0.06172839506172839,0,0,0.06172839506172839,14.012345679012345,0)" xlink:href="#o"/><use transform="matrix(0.06172839506172839,0,0,0.06172839506172839,34.938271604938265,0)" xlink:href="#p"/></g><path fill="#333" d="M240 0l2-218c-23 76-54 145-80 218h-23L58-218 59 0H30v-248h44l77 211c21-75 51-140 76-211h43V0h-30" id="M"/><path fill="#333" d="M141-36C126-15 110 5 73 4 37 3 15-17 15-53c-1-64 63-63 125-63 3-35-9-54-41-54-24 1-41 7-42 31l-33-3c5-37 33-52 76-52 45 0 72 20 72 64v82c-1 20 7 32 28 27v20c-31 9-61-2-59-35zM48-53c0 20 12 33 32 33 41-3 63-29 60-74-43 2-92-5-92 41" id="N"/><path fill="#333" d="M210-169c-67 3-38 105-44 169h-31v-121c0-29-5-50-35-48C34-165 62-65 56 0H25l-1-190h30c1 10-1 24 2 32 10-44 99-50 107 0 11-21 27-35 58-36 85-2 47 119 55 194h-31v-121c0-29-5-49-35-48" id="O"/><path fill="#333" d="M59-47c-2 24 18 29 38 22v24C64 9 27 4 27-40v-127H5v-23h24l9-43h21v43h35v23H59v120" id="P"/><g id="i"><use transform="matrix(0.06172839506172839,0,0,0.06172839506172839,0,0)" xlink:href="#M"/><use transform="matrix(0.06172839506172839,0,0,0.06172839506172839,18.456790123456788,0)" xlink:href="#N"/><use transform="matrix(0.06172839506172839,0,0,0.06172839506172839,30.80246913580247,0)" xlink:href="#r"/><use transform="matrix(0.06172839506172839,0,0,0.06172839506172839,43.148148148148145,0)" xlink:href="#N"/><use transform="matrix(0.06172839506172839,0,0,0.06172839506172839,55.49382716049382,0)" xlink:href="#s"/><use transform="matrix(0.06172839506172839,0,0,0.06172839506172839,67.8395061728395,0)" xlink:href="#u"/><use transform="matrix(0.06172839506172839,0,0,0.06172839506172839,80.18518518518519,0)" xlink:href="#O"/><use transform="matrix(0.06172839506172839,0,0,0.06172839506172839,98.64197530864197,0)" xlink:href="#u"/><use transform="matrix(0.06172839506172839,0,0,0.06172839506172839,110.98765432098766,0)" xlink:href="#r"/><use transform="matrix(0.06172839506172839,0,0,0.06172839506172839,123.33333333333334,0)" xlink:href="#P"/></g><path fill="#333" d="M212-179c-10-28-35-45-73-45-59 0-87 40-87 99 0 60 29 101 89 101 43 0 62-24 78-52l27 14C228-24 195 4 139 4 59 4 22-46 18-125c-6-104 99-153 187-111 19 9 31 26 39 46" id="Q"/><path fill="#333" d="M100-194c62-1 85 37 85 99 1 63-27 99-86 99S16-35 15-95c0-66 28-99 85-99zM99-20c44 1 53-31 53-75 0-43-8-75-51-75s-53 32-53 75 10 74 51 75" id="R"/><g id="j"><use transform="matrix(0.06172839506172839,0,0,0.06172839506172839,0,0)" xlink:href="#Q"/><use transform="matrix(0.06172839506172839,0,0,0.06172839506172839,15.987654320987653,0)" xlink:href="#R"/><use transform="matrix(0.06172839506172839,0,0,0.06172839506172839,28.333333333333332,0)" xlink:href="#r"/><use transform="matrix(0.06172839506172839,0,0,0.06172839506172839,40.67901234567901,0)" xlink:href="#K"/><use transform="matrix(0.06172839506172839,0,0,0.06172839506172839,51.79012345679013,0)" xlink:href="#R"/><use transform="matrix(0.06172839506172839,0,0,0.06172839506172839,64.13580246913581,0)" xlink:href="#t"/><use transform="matrix(0.06172839506172839,0,0,0.06172839506172839,69.01234567901236,0)" xlink:href="#u"/></g><path fill="#333" d="M30-248c87 1 191-15 191 75 0 78-77 80-158 76V0H30v-248zm33 125c57 0 124 11 124-50 0-59-68-47-124-48v98" id="S"/><path fill="#333" d="M33 0v-248h34V0H33" id="T"/><g id="k"><use transform="matrix(0.06172839506172839,0,0,0.06172839506172839,0,0)" xlink:href="#n"/><use transform="matrix(0.06172839506172839,0,0,0.06172839506172839,14.814814814814813,0)" xlink:href="#S"/><use transform="matrix(0.06172839506172839,0,0,0.06172839506172839,29.629629629629626,0)" xlink:href="#T"/><use transform="matrix(0.06172839506172839,0,0,0.06172839506172839,35.80246913580247,0)" xlink:href="#K"/></g><path fill="#333" d="M169-182c-1-43-94-46-97-3 18 66 151 10 154 114 3 95-165 93-204 36-6-8-10-19-12-30l50-8c3 46 112 56 116 5-17-69-150-10-154-114-4-87 153-88 188-35 5 8 8 18 10 28" id="U"/><path fill="#333" d="M25-224v-37h50v37H25zM25 0v-190h50V0H25" id="V"/><path fill="#333" d="M195-6C206 82 75 100 31 46c-4-6-6-13-8-21l49-6c3 16 16 24 34 25 40 0 42-37 40-79-11 22-30 35-61 35-53 0-70-43-70-97 0-56 18-96 73-97 30 0 46 14 59 34l2-30h47zm-90-29c32 0 41-27 41-63 0-35-9-62-40-62-32 0-39 29-40 63 0 36 9 62 39 62" id="W"/><path fill="#333" d="M135-194c87-1 58 113 63 194h-50c-7-57 23-157-34-157-59 0-34 97-39 157H25l-1-190h47c2 12-1 28 3 38 12-26 28-41 61-42" id="X"/><path fill="#333" d="M14-72v-43h91v43H14" id="Y"/><g id="l"><use transform="matrix(0.04938271604938272,0,0,0.04938271604938272,0,0)" xlink:href="#U"/><use transform="matrix(0.04938271604938272,0,0,0.04938271604938272,11.851851851851853,0)" xlink:href="#V"/><use transform="matrix(0.04938271604938272,0,0,0.04938271604938272,16.790123456790127,0)" xlink:href="#W"/><use transform="matrix(0.04938271604938272,0,0,0.04938271604938272,27.604938271604947,0)" xlink:href="#X"/><use transform="matrix(0.04938271604938272,0,0,0.04938271604938272,38.41975308641976,0)" xlink:href="#Y"/><use transform="matrix(0.04938271604938272,0,0,0.04938271604938272,44.296296296296305,0)" xlink:href="#V"/><use transform="matrix(0.04938271604938272,0,0,0.04938271604938272,49.23456790123458,0)" xlink:href="#X"/></g><path fill="#333" d="M76-208v77h127v40H76V0H24v-248h183v40H76" id="Z"/><path fill="#333" d="M185-48c-13 30-37 53-82 52C43 2 14-33 14-96s30-98 90-98c62 0 83 45 84 108H66c0 31 8 55 39 56 18 0 30-7 34-22zm-45-69c5-46-57-63-70-21-2 6-4 13-4 21h74" id="aa"/><path fill="#333" d="M88-194c31-1 46 15 58 34l-1-101h50l1 261h-48c-2-10 0-23-3-31C134-8 116 4 84 4 32 4 16-41 15-95c0-56 19-97 73-99zm17 164c33 0 40-30 41-66 1-37-9-64-41-64s-38 30-39 65c0 43 13 65 39 65" id="ab"/><path fill="#333" d="M135-150c-39-12-60 13-60 57V0H25l-1-190h47c2 13-1 29 3 40 6-28 27-53 61-41v41" id="ac"/><path fill="#333" d="M133-34C117-15 103 5 69 4 32 3 11-16 11-54c-1-60 55-63 116-61 1-26-3-47-28-47-18 1-26 9-28 27l-52-2c7-38 36-58 82-57s74 22 75 68l1 82c-1 14 12 18 25 15v27c-30 8-71 5-69-32zm-48 3c29 0 43-24 42-57-32 0-66-3-65 30 0 17 8 27 23 27" id="ad"/><path fill="#333" d="M115-3C79 11 28 4 28-45v-112H4v-33h27l15-45h31v45h36v33H77v99c-1 23 16 31 38 25v30" id="ae"/><g id="m"><use transform="matrix(0.04938271604938272,0,0,0.04938271604938272,0,0)" xlink:href="#Z"/><use transform="matrix(0.04938271604938272,0,0,0.04938271604938272,10.814814814814815,0)" xlink:href="#aa"/><use transform="matrix(0.04938271604938272,0,0,0.04938271604938272,20.69135802469136,0)" xlink:href="#ab"/><use transform="matrix(0.04938271604938272,0,0,0.04938271604938272,31.506172839506174,0)" xlink:href="#aa"/><use transform="matrix(0.04938271604938272,0,0,0.04938271604938272,41.38271604938272,0)" xlink:href="#ac"/><use transform="matrix(0.04938271604938272,0,0,0.04938271604938272,48.296296296296305,0)" xlink:href="#ad"/><use transform="matrix(0.04938271604938272,0,0,0.04938271604938272,58.17283950617284,0)" xlink:href="#ae"/><use transform="matrix(0.04938271604938272,0,0,0.04938271604938272,64.0493827160494,0)" xlink:href="#aa"/></g></defs></g></svg>